<svg id="glipy" height="512" viewBox="0 0 64 64" width="512" xmlns="http://www.w3.org/2000/svg"><path d="m44.2674 54.91321c-22.64246 11.92468-47.09186-12.50855-35.16248-35.16205a.99976.99976 0 0 0 -1.76019-.94782c-10.05744 18.20636 3.844 41.43879 24.67376 41.17707a27.91974 27.91974 0 0 0 13.19538-3.30741.9991.9991 0 1 0 -.94647-1.75982z"/><path d="m32.01849 4.0174a28.01932 28.01932 0 0 0 -13.05877 3.23419.99926.99926 0 0 0 .93493 1.76635 26.00762 26.00762 0 0 1 12.12354-3.0017c19.27081-.24324 32.19433 21.19622 22.98218 38.09521a.99936.99936 0 1 0 1.76446.9389 27.974 27.974 0 0 0 -24.74634-41.03295z"/><path d="m12.99255 17.85931c6.60566-.20983 6.60566-9.7835 0-9.9934-6.59564.2099-6.60565 9.78357 0 9.9934z"/><path d="m51.14734 46.0307c-6.59564.19989-6.59564 9.77356 0 9.99341 6.60566-.2099 6.60566-9.78351 0-9.99341z"/><path d="m31.2829 11.447c-.74121 1.27051-6.69141 9.28931-5.464 12.94183 2.08459.53443 5.18182 1.70881 6.15192 2.83185.12463.141.13238.15546.25927-.00006.96021-1.119 4.074-2.293 6.152-2.83166 1.23029-3.64-4.72437-11.68824-5.46393-12.94208a1.02976 1.02976 0 0 0 -1.63526.00012z"/><path d="m19.89636 26.51263a46.43783 46.43783 0 0 0 1.51557 6.08216c2.93567.58368 6.88464 1.40747 9.522 3.021a5.23136 5.23136 0 0 0 -.02-6.60046c-1.51654-2.10468-8.30243-3.35248-9.861-3.6593a.99828.99828 0 0 0 -1.15657 1.1566z"/><path d="m32.10046 52.89514a1 1 0 0 0 .99707-.99713v-7.31848a5.24061 5.24061 0 0 0 7.93671.64807c1.78473-1.78473 3.041-8.23572 3.27033-9.512a.99065.99065 0 0 0 -.27912-.88733c-.69049-.56555-1.16394-.14856-2.15375-.02008-3.414.82946-9.57055 1.71478-9.78106 6.36145-.14435-4.65015-6.4029-5.53955-9.76148-6.36139-.99127-.13-1.46374-.54535-2.15368.0199a.991.991 0 0 0 -.27912.88745c.30066 1.73858 1.68439 8.10015 3.27045 9.512a5.24039 5.24039 0 0 0 7.93658-.64813v7.31853a1 1 0 0 0 .99707.99714z"/><path d="m43.148 25.35608a46.07654 46.07654 0 0 0 -5.9325 1.47565 9.84888 9.84888 0 0 0 -3.57952 1.79467 5.24411 5.24411 0 0 0 -.36884 6.98951c2.6557-1.604 6.54767-2.447 9.512-3.01123a45.33654 45.33654 0 0 0 1.52552-6.09205.99822.99822 0 0 0 -1.15666-1.15655z"/></svg>