<svg height="512" viewBox="0 0 512 512" width="512" xmlns="http://www.w3.org/2000/svg"><g id="Flat"><path d="m296 256a136 136 0 1 1 -254.43-66.9 226.39 226.39 0 0 0 26.96-81l.66-4.83a91.65 91.65 0 0 1 181.62 0l.66 4.83a225.577 225.577 0 0 0 9.2 39.86 250.061 250.061 0 0 0 18.59 42.62 135.372 135.372 0 0 1 16.74 65.42z" fill="#66934c"/><path d="m296 256a135.744 135.744 0 0 1 -233.96 93.96c95.97-28.36 161.76-91.87 198.63-202a250.061 250.061 0 0 0 18.59 42.62 135.372 135.372 0 0 1 16.74 65.42z" fill="#638f43"/><path d="m90.8 179.017-14.818-6.034c2.062-5.064 3.983-10.277 5.709-15.5l15.191 5.026c-1.84 5.561-3.882 11.114-6.082 16.508z" fill="#74a15a"/><path d="m53.483 290.49a110.651 110.651 0 0 1 -5.483-34.49 111.956 111.956 0 0 1 14.456-55.075c2.3-4.064 4.514-8.254 6.577-12.452l14.361 7.056c-2.2 4.478-4.561 8.946-7.016 13.281a95.919 95.919 0 0 0 -12.378 47.19 94.7 94.7 0 0 0 4.688 29.511z" fill="#74a15a"/><path d="m488 168a111.946 111.946 0 0 1 -112-112 111.915 111.915 0 0 1 112 112z" fill="#79ad54"/><path d="m488 168a111.974 111.974 0 0 1 -100.05-61.62 267.6 267.6 0 0 0 91.21 17.94 111.629 111.629 0 0 1 8.84 43.68z" fill="#72a64e"/><path d="m360 126.667h-16v-6.294c-.453-5.4-2.223-46.414 42.159-93.839l11.682 10.932c-21.583 23.063-30.732 44.06-34.606 57.613-4.18 14.62-3.291 23.964-3.282 24.057a7.115 7.115 0 0 1 .047.864z" fill="#79ad54"/><path d="m443.468 204.1-.659-4.834a91.649 91.649 0 0 0 -90.809-79.266 91.649 91.649 0 0 0 -90.809 79.266l-.659 4.835a226.253 226.253 0 0 1 -26.961 81 135.349 135.349 0 0 0 -17.571 66.899c0 75.043 62.026 136.574 137.067 136a136.034 136.034 0 0 0 118.188-201.42c-14.104-25.652-23.832-53.475-27.787-82.48z" fill="#9bbc50"/><path d="m352.023 456a104.031 104.031 0 0 1 -90.606-155.134 257.126 257.126 0 0 0 30.821-92.441l.659-4.837a59.65 59.65 0 0 1 118.206 0l.659 4.834c4.376 32.095 14.958 63.578 31.453 93.578a104.019 104.019 0 0 1 -90.394 154z" fill="#fedb6d"/><path d="m440 368a72 72 0 1 1 -14.02-42.69 72.006 72.006 0 0 1 14.02 42.69z" fill="#f7cf59"/><path d="m424 352a72 72 0 1 1 -14.02-42.69 72.006 72.006 0 0 1 14.02 42.69z" fill="#92563a"/><path d="m424 352a71.992 71.992 0 0 1 -122.13 51.67c43.9-21.1 79.88-52.04 108.11-94.36a71.687 71.687 0 0 1 14.02 42.69z" fill="#875036"/></g></svg>