<svg id="Layer_1" enable-background="new 0 0 52 52" height="512" viewBox="0 0 52 52" width="512" xmlns="http://www.w3.org/2000/svg"><g id="_x38_7"><path d="m34.7796326 20.6987019c-1.9867554.1255493-3.7070313 1.3154907-4.9096069 2.4464722.9655762-1.3398438 1.9317017-3.2003784 1.8060303-5.1896362-.2440796-3.864747-4.5023193-6.7345591-4.5023193-6.7345591s-3.8633423 3.3827515-3.6192017 7.2475595c.2420044 3.8319092 4.4411621 6.6929932 4.4971924 6.7310181l-.0021362.0024414s3.401001 3.8633423 7.2520752 3.6104736c3.87146-.2349243 6.7401733-4.4942627 6.7401733-4.4942627s-3.3818971-3.864563-7.2622071-3.6195068z"/><path d="m41.6602478 14.1898508c-1.9866943.1254883-3.7069702 1.3153687-4.9095459 2.44629.9655151-1.3397837 1.9316406-3.2002573 1.8059692-5.1894541-.2440796-3.8648067-4.5023193-6.7346187-4.5023193-6.7346187s-3.8633423 3.382812-3.6192017 7.2475581c.2420044 3.8319702 4.4411621 6.6929941 4.4971924 6.731019l-.0021362.0024414s3.401001 3.8633423 7.2520752 3.6105347c3.8713989-.2349243 6.7401733-4.4943237 6.7401733-4.4943237s-3.3818969-3.8645639-7.262207-3.6194467z"/><path d="m47.1996765 10.4267893c2.5602417-2.905395 1.5784302-7.9456787 1.5784302-7.9456787s-5.1237793-.3397827-7.68396 2.565613c-2.555481 2.9000854-1.5784302 7.9457393-1.5784302 7.9457393s5.1285401.3344118 7.68396-2.5656736z"/><path d="m28.5845032 27.6413288c-1.9880981.1159668-3.7167969 1.317627-4.920166 2.4538574.9680176-1.3405151 1.9394531-3.2052612 1.8134766-5.199707-.2440796-3.8647461-4.5023193-6.7345581-4.5023193-6.7345581s-3.8633423 3.3828125-3.6192017 7.2475586c.243103 3.8490601 4.4817505 6.7205791 4.5006104 6.7333965l-.0023804.0026855s3.3908691 3.8543701 7.2520752 3.6104736c3.8612671-.2438354 6.7299805-4.503233 6.7299805-4.503233s-3.3818361-3.8645018-7.2520753-3.6104735z"/><path d="m22.2982483 34.4473572c-2.0026245.1264648-3.7359009 1.3347168-4.9396973 2.4735718.9718628-1.3416748 1.9515991-3.2130737 1.8251343-5.2155132-.2441406-3.8648071-4.5023804-6.7346191-4.5023804-6.7346191s-3.8632813 3.3828125-3.6192017 7.2475567c.1757813 2.78302 2.4354858 5.0487061 3.684082 6.098938-7.7958374 7.6068726-9.9572144 8.9022827-10.4841309 9.1190796-.3461914-.0795898-.7241211.0283203-.9755859.3134766-.3647461.4145508-.3251953 1.0463867.0893555 1.4116211.2114258.1860352.4199219.3696289.7885742.3696289 1.1074219 0 3.6621094-1.6586914 12.0893555-9.8896484l.0008545-.0008545c1.1774902 1.0985718 3.7359619 3.1088257 6.5567627 2.9306641 3.8612671-.2438354 6.7299805-4.5032349 6.7299805-4.5032349s-3.3818359-3.8645022-7.243103-3.6206667z"/></g></svg>