<svg id="Capa_1" enable-background="new 0 0 510 510" height="512" viewBox="0 0 510 510" width="512" xmlns="http://www.w3.org/2000/svg" xmlns:xlink="http://www.w3.org/1999/xlink"><linearGradient id="lg1"><stop offset="0" stop-color="#d1f19e"/><stop offset="1" stop-color="#78a91f"/></linearGradient><linearGradient id="SVGID_1_" gradientUnits="userSpaceOnUse" x1="299.277" x2="273.943" xlink:href="#lg1" y1="33.244" y2="71.911"/><linearGradient id="lg2"><stop offset="0" stop-color="#026841" stop-opacity="0"/><stop offset=".3243" stop-color="#046842" stop-opacity=".324"/><stop offset=".5509" stop-color="#0e6546" stop-opacity=".551"/><stop offset=".7476" stop-color="#1d614c" stop-opacity=".748"/><stop offset=".9263" stop-color="#335c54" stop-opacity=".926"/><stop offset="1" stop-color="#3e5959"/></linearGradient><linearGradient id="SVGID_00000112606457449723529300000006772852469154433419_" gradientUnits="userSpaceOnUse" x1="288.113" x2="288.113" xlink:href="#lg2" y1="31.333" y2="66.767"/><linearGradient id="SVGID_00000077306835745446612910000017247855292956922814_" gradientUnits="userSpaceOnUse" x1="230.066" x2="483.206" xlink:href="#lg1" y1="146.434" y2="399.574"/><linearGradient id="SVGID_00000080200584149702945480000014788177283760697524_" gradientUnits="userSpaceOnUse" x1="417.5" x2="490.493" xlink:href="#lg2" y1="246.049" y2="246.049"/><linearGradient id="SVGID_00000013904339158609830750000009692695507700225676_" gradientUnits="userSpaceOnUse" x1="329.681" x2="329.681" xlink:href="#lg2" y1="377" y2="440.127"/><linearGradient id="SVGID_00000005225663235753675900000007142627446974944896_" gradientUnits="userSpaceOnUse" x1="374" x2="316.86" xlink:href="#lg2" y1="385.593" y2="385.593"/><linearGradient id="SVGID_00000171712558844597994690000017939943534932632239_" gradientUnits="userSpaceOnUse" x1="209.198" x2="272.711" xlink:href="#lg2" y1="-67.95" y2="216.739"/><linearGradient id="SVGID_00000014619422371748132420000003531420771962884784_" gradientUnits="userSpaceOnUse" x1="190" x2="253.513" xlink:href="#lg2" y1="-63.667" y2="221.022"/><linearGradient id="SVGID_00000155838203720532598230000016633760477092796347_" gradientUnits="userSpaceOnUse" x1="383.707" x2="447.22" xlink:href="#lg2" y1="193.821" y2="478.51"/><linearGradient id="SVGID_00000102515391255969480430000002241161030331943059_" gradientUnits="userSpaceOnUse" x1="342.972" x2="406.485" xlink:href="#lg2" y1="202.909" y2="487.598"/><linearGradient id="SVGID_00000006700750000142829320000011524234884432316054_" gradientUnits="userSpaceOnUse" x1="271.201" x2="329.88" xlink:href="#lg2" y1="-66.81" y2="196.206"/><linearGradient id="SVGID_00000004517857957465467040000000613182378369323157_" gradientUnits="userSpaceOnUse" x1="230.629" x2="294.142" xlink:href="#lg2" y1="-72.731" y2="211.958"/><linearGradient id="lg3"><stop offset="0" stop-color="#fffaf8"/><stop offset="1" stop-color="#ffdfcf"/></linearGradient><linearGradient id="SVGID_00000019668964385720974540000001166693873222020276_" gradientUnits="userSpaceOnUse" x1="285.862" x2="390.183" xlink:href="#lg3" y1="202.23" y2="306.551"/><linearGradient id="lg4"><stop offset="0" stop-color="#ffa78f" stop-opacity="0"/><stop offset=".8981" stop-color="#ffa78f" stop-opacity=".898"/><stop offset="1" stop-color="#ffa78f"/></linearGradient><linearGradient id="SVGID_00000149369600381817925360000004163106750934519936_" gradientUnits="userSpaceOnUse" x1="329.681" x2="329.681" xlink:href="#lg4" y1="247.665" y2="350.112"/><linearGradient id="SVGID_00000078753234452888746720000001152917910440974979_" gradientUnits="userSpaceOnUse" x1="348.028" x2="408.673" xlink:href="#lg4" y1="264.396" y2="325.041"/><linearGradient id="SVGID_00000012444494447984866180000008796031527241741247_" gradientUnits="userSpaceOnUse" x1="392" x2="327.998" y1="246.049" y2="246.049"><stop offset="0" stop-color="#f89580" stop-opacity="0"/><stop offset=".2596" stop-color="#f2907b" stop-opacity=".26"/><stop offset=".6091" stop-color="#e1846e" stop-opacity=".611"/><stop offset=".9972" stop-color="#c5715a"/></linearGradient><linearGradient id="lg5"><stop offset="0" stop-color="#fef0ae"/><stop offset="1" stop-color="#fac600"/></linearGradient><linearGradient id="SVGID_00000023973988683927239540000008695477985295276479_" gradientTransform="matrix(.707 -.707 .707 .707 2410.182 -1227.805)" gradientUnits="userSpaceOnUse" x1="-2600.781" x2="-2565.025" xlink:href="#lg5" y1="-431.698" y2="-395.942"/><linearGradient id="lg6"><stop offset="0" stop-color="#fea613" stop-opacity="0"/><stop offset=".2409" stop-color="#fda315" stop-opacity=".241"/><stop offset=".4349" stop-color="#fb991a" stop-opacity=".435"/><stop offset=".6125" stop-color="#f88822" stop-opacity=".613"/><stop offset=".7804" stop-color="#f2702e" stop-opacity=".78"/><stop offset=".94" stop-color="#ec523d" stop-opacity=".94"/><stop offset="1" stop-color="#e94444"/></linearGradient><linearGradient id="SVGID_00000172425710192557811450000000149499094177299343_" gradientTransform="matrix(.707 -.707 .707 .707 2410.182 -1227.805)" gradientUnits="userSpaceOnUse" x1="-2566.344" x2="-2604.234" xlink:href="#lg6" y1="-418.917" y2="-399.202"/><linearGradient id="SVGID_00000124140648248364080490000014992267280149585029_" gradientUnits="userSpaceOnUse" x1="291.301" x2="316.653" xlink:href="#lg6" y1="311.904" y2="260.897"/><linearGradient id="SVGID_00000019674166907302468180000010237914622955147404_" gradientTransform="matrix(.707 -.707 .707 .707 2410.182 -1227.805)" gradientUnits="userSpaceOnUse" x1="-2561.749" x2="-2527.388" xlink:href="#lg5" y1="-467.211" y2="-432.85"/><linearGradient id="SVGID_00000087406393079151880670000014703128987059108485_" gradientTransform="matrix(.707 -.707 .707 .707 2410.182 -1227.805)" gradientUnits="userSpaceOnUse" x1="-2528.655" x2="-2565.066" xlink:href="#lg6" y1="-454.929" y2="-435.983"/><linearGradient id="SVGID_00000034803430832119843710000007976891726415290013_" gradientUnits="userSpaceOnUse" x1="296.912" x2="319.245" xlink:href="#lg6" y1="251.262" y2="219.648"/><linearGradient id="SVGID_00000136403376332399681330000013551685081998331574_" gradientTransform="matrix(.707 -.707 .707 .707 2410.182 -1227.805)" gradientUnits="userSpaceOnUse" x1="-2523.139" x2="-2492.016" xlink:href="#lg5" y1="-497.652" y2="-466.529"/><linearGradient id="SVGID_00000151521258944088400270000002269874360265396398_" gradientTransform="matrix(.707 -.707 .707 .707 2410.182 -1227.805)" gradientUnits="userSpaceOnUse" x1="-2493.163" x2="-2526.144" xlink:href="#lg6" y1="-486.527" y2="-469.366"/><linearGradient id="SVGID_00000070802451139394921880000005252795548665098385_" gradientTransform="matrix(-.707 -.707 -.707 .707 -3082.223 -1227.805)" gradientUnits="userSpaceOnUse" x1="-3542.225" x2="-3506.47" xlink:href="#lg5" y1="-1373.142" y2="-1337.386"/><linearGradient id="SVGID_00000006699788128046084130000009139737242691487126_" gradientTransform="matrix(-.707 -.707 -.707 .707 -3082.223 -1227.805)" gradientUnits="userSpaceOnUse" x1="-3507.788" x2="-3545.678" xlink:href="#lg6" y1="-1360.361" y2="-1340.646"/><linearGradient id="SVGID_00000056418755762367898550000010322494042154847136_" gradientTransform="matrix(-1 0 0 1 -672.041 0)" gradientUnits="userSpaceOnUse" x1="-1040.102" x2="-1014.75" xlink:href="#lg6" y1="311.904" y2="260.897"/><linearGradient id="SVGID_00000145756731808846906390000013115004860973991834_" gradientTransform="matrix(-.707 -.707 -.707 .707 -3082.223 -1227.805)" gradientUnits="userSpaceOnUse" x1="-3503.193" x2="-3468.832" xlink:href="#lg5" y1="-1408.655" y2="-1374.294"/><linearGradient id="SVGID_00000128465975725757530390000010945234620075836320_" gradientTransform="matrix(-.707 -.707 -.707 .707 -3082.223 -1227.805)" gradientUnits="userSpaceOnUse" x1="-3470.099" x2="-3506.511" xlink:href="#lg6" y1="-1396.373" y2="-1377.427"/><linearGradient id="SVGID_00000070100898245420261720000017549655413378020530_" gradientTransform="matrix(-1 0 0 1 -672.041 0)" gradientUnits="userSpaceOnUse" x1="-1034.491" x2="-1012.158" xlink:href="#lg6" y1="251.262" y2="219.648"/><linearGradient id="SVGID_00000043429512335385126920000015372160916832614292_" gradientTransform="matrix(-.707 -.707 -.707 .707 -3082.223 -1227.805)" gradientUnits="userSpaceOnUse" x1="-3464.583" x2="-3433.46" xlink:href="#lg5" y1="-1439.096" y2="-1407.973"/><linearGradient id="SVGID_00000026858188092171495540000012860443552771783865_" gradientTransform="matrix(-.707 -.707 -.707 .707 -3082.223 -1227.805)" gradientUnits="userSpaceOnUse" x1="-3434.607" x2="-3467.588" xlink:href="#lg6" y1="-1427.971" y2="-1410.81"/><linearGradient id="SVGID_00000031907589175798358520000013215108618543298239_" gradientUnits="userSpaceOnUse" x1="349.903" x2="327.872" xlink:href="#lg6" y1="259.528" y2="259.528"/><linearGradient id="SVGID_00000163054795527297141490000013467282277479787151_" gradientUnits="userSpaceOnUse" x1="327.468" x2="334.321" xlink:href="#lg5" y1="270.343" y2="270.343"/><linearGradient id="SVGID_00000044153398735603790900000000878576643947218069_" gradientUnits="userSpaceOnUse" x1="309.77" x2="345.526" xlink:href="#lg5" y1="135.84" y2="171.596"/><linearGradient id="SVGID_00000039819018813834019150000015606944867463878784_" gradientUnits="userSpaceOnUse" x1="344.208" x2="306.317" xlink:href="#lg6" y1="148.621" y2="168.336"/><linearGradient id="lg7"><stop offset="0" stop-color="#f89580"/><stop offset="1" stop-color="#c4573a"/></linearGradient><linearGradient id="SVGID_00000155856957585252861670000003249702833342994347_" gradientUnits="userSpaceOnUse" x1="124.589" x2="149.46" xlink:href="#lg7" y1="291.043" y2="315.914"/><linearGradient id="lg8"><stop offset="0" stop-color="#c4573a" stop-opacity="0"/><stop offset=".2571" stop-color="#c05539" stop-opacity=".257"/><stop offset=".5166" stop-color="#b45137" stop-opacity=".517"/><stop offset=".7761" stop-color="#a04833" stop-opacity=".776"/><stop offset="1" stop-color="#883f2e"/></linearGradient><linearGradient id="SVGID_00000140707409788811542690000001452982978820978841_" gradientUnits="userSpaceOnUse" x1="135.035" x2="135.035" xlink:href="#lg8" y1="301.875" y2="326.299"/><linearGradient id="SVGID_00000049187093831985541940000004496469796871147154_" gradientUnits="userSpaceOnUse" x1="139.409" x2="153.868" xlink:href="#lg8" y1="305.864" y2="320.322"/><linearGradient id="SVGID_00000038390615118000186910000013303630395796081044_" gradientUnits="userSpaceOnUse" x1="279.368" x2="302.701" y1="298.571" y2="331.237"><stop offset="0" stop-color="#ffdfcf"/><stop offset="1" stop-color="#814aa0"/></linearGradient><linearGradient id="SVGID_00000039112583657768642760000015505011967811144597_" gradientUnits="userSpaceOnUse" x1="299.409" x2="281.909" y1="296.895" y2="330.895"><stop offset="0" stop-color="#54469c" stop-opacity="0"/><stop offset=".4212" stop-color="#524598" stop-opacity=".421"/><stop offset=".797" stop-color="#4b3f8d" stop-opacity=".797"/><stop offset="1" stop-color="#463b84"/></linearGradient><linearGradient id="SVGID_00000035511297416120976190000014013744792756620933_" gradientUnits="userSpaceOnUse" x1="169.576" x2="194.447" xlink:href="#lg7" y1="298.84" y2="323.71"/><linearGradient id="SVGID_00000183941599420260882570000012926578184272462216_" gradientUnits="userSpaceOnUse" x1="180.023" x2="180.023" xlink:href="#lg8" y1="309.672" y2="334.096"/><linearGradient id="SVGID_00000174562497447207514700000015748336450925209249_" gradientUnits="userSpaceOnUse" x1="184.397" x2="198.855" xlink:href="#lg8" y1="313.66" y2="328.118"/><linearGradient id="SVGID_00000145763541216932040060000013056702710743385785_" gradientUnits="userSpaceOnUse" x1="158.88" x2="170.88" xlink:href="#lg5" y1="314.079" y2="349.079"/><linearGradient id="SVGID_00000110457905688477287610000000009558837305477562_" gradientUnits="userSpaceOnUse" x1="178.274" x2="178.274" xlink:href="#lg6" y1="314" y2="355.049"/><linearGradient id="SVGID_00000055674461971878777950000006454996250143707520_" gradientUnits="userSpaceOnUse" x1="62.242" x2="87.113" xlink:href="#lg7" y1="331.173" y2="356.044"/><linearGradient id="SVGID_00000131333913758098709150000000859469164455036588_" gradientUnits="userSpaceOnUse" x1="72.689" x2="72.689" xlink:href="#lg8" y1="342.005" y2="366.429"/><linearGradient id="SVGID_00000029767445855729632150000009501872279523003821_" gradientUnits="userSpaceOnUse" x1="77.063" x2="91.521" xlink:href="#lg8" y1="345.994" y2="360.452"/><linearGradient id="SVGID_00000114788316239284026210000005323942189514845356_" gradientUnits="userSpaceOnUse" x1="146.758" x2="171.629" xlink:href="#lg7" y1="336.2" y2="361.071"/><linearGradient id="SVGID_00000117639662960447915060000006647413684027444355_" gradientUnits="userSpaceOnUse" x1="157.205" x2="157.205" xlink:href="#lg8" y1="347.032" y2="371.456"/><linearGradient id="SVGID_00000084507798427582981410000000807100946638557619_" gradientUnits="userSpaceOnUse" x1="161.579" x2="176.037" xlink:href="#lg8" y1="351.021" y2="365.479"/><linearGradient id="SVGID_00000077322069052480076340000006406521005402636212_" gradientUnits="userSpaceOnUse" x1="260.435" x2="285.306" xlink:href="#lg7" y1="334.088" y2="358.959"/><linearGradient id="SVGID_00000146477733790655008250000012092089560249608119_" gradientUnits="userSpaceOnUse" x1="270.882" x2="270.882" xlink:href="#lg8" y1="344.92" y2="369.344"/><linearGradient id="SVGID_00000176736548768882676650000013416918294562649493_" gradientUnits="userSpaceOnUse" x1="275.256" x2="289.714" xlink:href="#lg8" y1="348.909" y2="363.367"/><linearGradient id="SVGID_00000173138717700773472340000005150555736036448913_" gradientUnits="userSpaceOnUse" x1="228.768" x2="253.639" xlink:href="#lg7" y1="319.421" y2="344.292"/><linearGradient id="SVGID_00000098938668062554033610000016762221393055626638_" gradientUnits="userSpaceOnUse" x1="239.215" x2="239.215" xlink:href="#lg8" y1="330.253" y2="354.677"/><linearGradient id="SVGID_00000018940907731385190760000003171458107123329421_" gradientUnits="userSpaceOnUse" x1="243.589" x2="258.047" xlink:href="#lg8" y1="334.242" y2="348.7"/><linearGradient id="SVGID_00000039100383707653671210000012681723564474008237_" gradientUnits="userSpaceOnUse" x1="178.274" x2="178.274" xlink:href="#lg3" y1="476.535" y2="517.077"/><linearGradient id="SVGID_00000100370494652600020180000017859314567203145865_" gradientUnits="userSpaceOnUse" x1="178.274" x2="178.274" xlink:href="#lg4" y1="488" y2="507.437"/><linearGradient id="SVGID_00000111170776076956159890000000272224388431481741_" gradientUnits="userSpaceOnUse" x1="166.741" x2="220.075" xlink:href="#lg3" y1="368.564" y2="476.564"/><linearGradient id="SVGID_00000124132067418209050900000001223226779885356210_" gradientUnits="userSpaceOnUse" x1="178.274" x2="178.274" xlink:href="#lg4" y1="440.667" y2="492.671"/><linearGradient id="SVGID_00000163044955757512463270000014051183053612494265_" gradientUnits="userSpaceOnUse" x1="272.064" x2="334.73" xlink:href="#lg4" y1="423.729" y2="431.063"/><g><g><path d="m315.495 107.323-78.268-78.268c-3.7-3.7-3.7-9.7 0-13.4l12.88-12.88c3.7-3.7 9.699-3.7 13.4 0l78.268 78.268z" fill="url(#SVGID_1_)"/><path d="m315.495 107.323-78.268-78.268c-3.7-3.7-3.7-9.7 0-13.4l12.88-12.88c3.7-3.7 9.699-3.7 13.4 0l78.268 78.268z" fill="url(#SVGID_00000112606457449723529300000006772852469154433419_)"/><path d="m448.724 430.186h-238.086c-16.051 0-29.063-13.012-29.063-29.063v-310.147c0-16.051 13.012-29.063 29.063-29.063h238.086c16.051 0 29.063 13.012 29.063 29.063v310.148c0 16.05-13.012 29.062-29.063 29.062z" fill="url(#SVGID_00000077306835745446612910000017247855292956922814_)"/><path d="m448.724 61.912h-121.224v368.274h121.224c16.051 0 29.063-13.012 29.063-29.063v-310.147c0-16.052-13.012-29.064-29.063-29.064z" fill="url(#SVGID_00000080200584149702945480000014788177283760697524_)"/><path d="m181.575 286v115.123c0 16.051 13.012 29.063 29.063 29.063h238.086c16.051 0 29.063-13.012 29.063-29.063v-115.123z" fill="url(#SVGID_00000013904339158609830750000009692695507700225676_)"/><path d="m304 341v89.186h144.724c16.051 0 29.063-13.012 29.063-29.063v-60.123z" fill="url(#SVGID_00000005225663235753675900000007142627446974944896_)"/><g><path d="m278.601 87.256h-66.839c-3.359 0-6.083 2.723-6.083 6.083 0 3.359 2.723 6.082 6.083 6.082h66.839c3.359 0 6.083-2.723 6.083-6.082-.001-3.359-2.724-6.083-6.083-6.083z" fill="url(#SVGID_00000171712558844597994690000017939943534932632239_)"/><path d="m248.107 121.419c3.359 0 6.083-2.723 6.083-6.083 0-3.359-2.723-6.082-6.083-6.082h-36.345c-3.359 0-6.083 2.723-6.083 6.082 0 3.36 2.723 6.083 6.083 6.083z" fill="url(#SVGID_00000014619422371748132420000003531420771962884784_)"/><path d="m447.601 392.678h-36.345c-3.359 0-6.083 2.723-6.083 6.082 0 3.36 2.723 6.083 6.083 6.083h36.345c3.359 0 6.083-2.723 6.083-6.083-.001-3.359-2.724-6.082-6.083-6.082z" fill="url(#SVGID_00000155838203720532598230000016633760477092796347_)"/><path d="m392.57 392.678h-11.808c-3.359 0-6.083 2.723-6.083 6.082 0 3.36 2.723 6.083 6.083 6.083h11.808c3.359 0 6.083-2.723 6.083-6.083-.001-3.359-2.724-6.082-6.083-6.082z" fill="url(#SVGID_00000102515391255969480430000002241161030331943059_)"/><path d="m326.5 109.254h-29.325c-3.359 0-6.083 2.723-6.083 6.083 0 3.359 2.723 6.082 6.083 6.082h29.325c3.359 0 6.083-2.723 6.083-6.082 0-3.36-2.724-6.083-6.083-6.083z" fill="url(#SVGID_00000006700750000142829320000011524234884432316054_)"/><path d="m278.49 121.419c3.359 0 6.083-2.723 6.083-6.082 0-3.36-2.723-6.083-6.083-6.083h-11.808c-3.359 0-6.082 2.723-6.082 6.083 0 3.359 2.723 6.082 6.082 6.082z" fill="url(#SVGID_00000004517857957465467040000000613182378369323157_)"/></g><g><circle cx="329.681" cy="246.049" fill="url(#SVGID_00000019668964385720974540000001166693873222020276_)" r="111.165"/><path d="m218.516 246.049c0 61.395 49.77 111.165 111.165 111.165s111.165-49.771 111.165-111.165c0-13.297-2.342-26.044-6.624-37.863h-209.082c-4.282 11.819-6.624 24.567-6.624 37.863z" fill="url(#SVGID_00000149369600381817925360000004163106750934519936_)"/><path d="m251.075 324.655c43.413 43.413 113.799 43.413 157.212 0s43.413-113.799 0-157.212c-9.402-9.402-20.072-16.76-31.457-22.089l-147.844 147.845c5.33 11.384 12.687 22.054 22.089 31.456z" fill="url(#SVGID_00000078753234452888746720000001152917910440974979_)"/></g><path d="m440.847 246.049c0-61.395-49.77-111.165-111.165-111.165v222.331c61.394 0 111.165-49.771 111.165-111.166z" fill="url(#SVGID_00000012444494447984866180000008796031527241741247_)"/><g><g><g><g><path d="m264.559 270.737c-2.979.407-5.33 2.758-5.737 5.737-2.085 15.264 4.136 33.098 17.883 46.845s31.581 19.968 46.845 17.883c2.979-.407 5.33-2.758 5.737-5.737 2.085-15.264-4.136-33.098-17.883-46.845s-31.581-19.968-46.845-17.883z" fill="url(#SVGID_00000023973988683927239540000008695477985295276479_)"/><path d="m329.287 335.465c2.085-15.264-4.136-33.098-17.883-46.845s-31.581-19.968-46.845-17.883c-1.489.203-2.822.893-3.833 1.904l66.657 66.657c1.011-1.011 1.701-2.344 1.904-3.833z" fill="url(#SVGID_00000172425710192557811450000000149499094177299343_)"/><path d="m329.287 335.465c2.085-15.264-4.136-33.098-17.883-46.845s-31.581-19.968-46.845-17.883c-1.489.203-2.822.893-3.833 1.904l66.657 66.657c1.011-1.011 1.701-2.344 1.904-3.833z" fill="url(#SVGID_00000124140648248364080490000014992267280149585029_)"/></g><g><path d="m267.1 219.4c-2.863.391-5.122 2.65-5.513 5.513-2.004 14.669 3.975 31.807 17.185 45.017 13.211 13.211 30.349 19.189 45.017 17.185 2.863-.391 5.122-2.65 5.513-5.513 2.004-14.669-3.974-31.807-17.185-45.017-13.21-13.211-30.348-19.189-45.017-17.185z" fill="url(#SVGID_00000019674166907302468180000010237914622955147404_)"/><path d="m329.302 281.602c2.004-14.669-3.975-31.807-17.185-45.017-13.211-13.211-30.349-19.189-45.017-17.185-1.431.196-2.712.858-3.683 1.829l64.056 64.056c.971-.971 1.634-2.252 1.829-3.683z" fill="url(#SVGID_00000087406393079151880670000014703128987059108485_)"/><path d="m329.302 281.602c2.004-14.669-3.975-31.807-17.185-45.017-13.211-13.211-30.349-19.189-45.017-17.185-1.431.196-2.712.858-3.683 1.829l64.056 64.056c.971-.971 1.634-2.252 1.829-3.683z" fill="url(#SVGID_00000034803430832119843710000007976891726415290013_)"/></g><g><path d="m272.997 173.764c-2.593.354-4.639 2.4-4.993 4.993-1.815 13.286 3.6 28.809 15.566 40.775s27.489 17.381 40.775 15.566c2.593-.354 4.639-2.4 4.993-4.993 1.815-13.286-3.6-28.809-15.566-40.775-11.965-11.966-27.488-17.381-40.775-15.566z" fill="url(#SVGID_00000136403376332399681330000013551685081998331574_)"/><path d="m329.338 230.105c1.815-13.286-3.6-28.809-15.566-40.775s-27.489-17.381-40.775-15.566c-1.296.177-2.456.777-3.336 1.657l58.02 58.02c.88-.88 1.48-2.04 1.657-3.336z" fill="url(#SVGID_00000151521258944088400270000002269874360265396398_)"/></g></g><g><g><path d="m394.803 270.737c2.979.407 5.33 2.758 5.737 5.737 2.085 15.264-4.136 33.098-17.883 46.845s-31.581 19.968-46.845 17.883c-2.979-.407-5.33-2.758-5.737-5.737-2.085-15.264 4.136-33.098 17.883-46.845s31.581-19.968 46.845-17.883z" fill="url(#SVGID_00000070802451139394921880000005252795548665098385_)"/><path d="m330.075 335.465c-2.085-15.264 4.136-33.098 17.883-46.845s31.581-19.968 46.845-17.883c1.489.203 2.822.893 3.833 1.904l-66.657 66.657c-1.011-1.011-1.7-2.344-1.904-3.833z" fill="url(#SVGID_00000006699788128046084130000009139737242691487126_)"/><path d="m330.075 335.465c-2.085-15.264 4.136-33.098 17.883-46.845s31.581-19.968 46.845-17.883c1.489.203 2.822.893 3.833 1.904l-66.657 66.657c-1.011-1.011-1.7-2.344-1.904-3.833z" fill="url(#SVGID_00000056418755762367898550000010322494042154847136_)"/></g><g><path d="m392.262 219.4c2.863.391 5.122 2.65 5.513 5.513 2.004 14.669-3.975 31.807-17.185 45.017-13.211 13.211-30.349 19.189-45.017 17.185-2.863-.391-5.122-2.65-5.513-5.513-2.004-14.669 3.975-31.807 17.185-45.017 13.211-13.211 30.349-19.189 45.017-17.185z" fill="url(#SVGID_00000145756731808846906390000013115004860973991834_)"/><path d="m330.06 281.602c-2.004-14.669 3.974-31.807 17.185-45.017 13.211-13.211 30.349-19.189 45.017-17.185 1.431.196 2.712.858 3.683 1.829l-64.056 64.056c-.971-.971-1.634-2.252-1.829-3.683z" fill="url(#SVGID_00000128465975725757530390000010945234620075836320_)"/><path d="m330.06 281.602c-2.004-14.669 3.974-31.807 17.185-45.017 13.211-13.211 30.349-19.189 45.017-17.185 1.431.196 2.712.858 3.683 1.829l-64.056 64.056c-.971-.971-1.634-2.252-1.829-3.683z" fill="url(#SVGID_00000070100898245420261720000017549655413378020530_)"/></g><g><path d="m386.365 173.764c2.593.354 4.639 2.4 4.993 4.993 1.815 13.286-3.6 28.809-15.566 40.775s-27.489 17.381-40.775 15.566c-2.593-.354-4.639-2.4-4.993-4.993-1.815-13.286 3.6-28.809 15.566-40.775s27.489-17.381 40.775-15.566z" fill="url(#SVGID_00000043429512335385126920000015372160916832614292_)"/><path d="m330.024 230.105c-1.815-13.286 3.6-28.809 15.566-40.775s27.489-17.381 40.775-15.566c1.296.177 2.456.777 3.336 1.657l-58.02 58.02c-.88-.88-1.48-2.04-1.657-3.336z" fill="url(#SVGID_00000026858188092171495540000012860443552771783865_)"/></g></g></g><path d="m362.813 177.461c-6.098 2.67-12 6.645-17.223 11.869-11.966 11.966-17.381 27.489-15.566 40.775.354 2.593 2.4 4.639 4.993 4.993 4.663.637 9.601.38 14.565-.735-.791.717-1.571 1.456-2.337 2.222-13.211 13.211-19.189 30.349-17.185 45.017.391 2.863 2.65 5.122 5.513 5.513 4.639.634 9.525.467 14.455-.473-.698.642-1.391 1.298-2.07 1.977-13.747 13.747-19.968 31.581-17.883 46.845.407 2.979 2.758 5.33 5.737 5.737 8.583 1.172 17.977-.281 27.001-4.222z" fill="url(#SVGID_00000031907589175798358520000013215108618543298239_)"/><path d="m329.681 357.215c-2.5 0-4.527-2.027-4.527-4.527v-164.69c0-2.5 2.027-4.527 4.527-4.527 2.5 0 4.527 2.027 4.527 4.527v164.69c0 2.5-2.026 4.527-4.527 4.527z" fill="url(#SVGID_00000163054795527297141490000013467282277479787151_)"/><g><path d="m333.738 109.981c-2.394-1.819-5.719-1.819-8.113 0-12.268 9.319-20.479 26.329-20.479 45.77s8.212 36.451 20.479 45.77c2.394 1.819 5.719 1.819 8.113 0 12.268-9.319 20.479-26.328 20.479-45.77 0-19.441-8.212-36.45-20.479-45.77z" fill="url(#SVGID_00000044153398735603790900000000878576643947218069_)"/><path d="m333.738 201.521c12.268-9.319 20.479-26.328 20.479-45.77 0-19.441-8.212-36.451-20.479-45.77-1.197-.909-2.627-1.364-4.056-1.364v94.267c1.429.001 2.858-.454 4.056-1.363z" fill="url(#SVGID_00000039819018813834019150000015606944867463878784_)"/></g></g></g><g><g><circle cx="135.035" cy="301.49" fill="url(#SVGID_00000155856957585252861670000003249702833342994347_)" r="26.503"/><path d="m108.533 301.49c0 14.637 11.866 26.503 26.503 26.503s26.503-11.866 26.503-26.503c0-3.17-.558-6.209-1.579-9.027h-49.847c-1.022 2.818-1.58 5.857-1.58 9.027z" fill="url(#SVGID_00000140707409788811542690000001452982978820978841_)"/><path d="m116.295 320.23c10.35 10.35 27.13 10.35 37.48 0s10.35-27.13 0-37.48c-2.242-2.242-4.785-3.996-7.499-5.266l-35.247 35.247c1.271 2.714 3.025 5.258 5.266 7.499z" fill="url(#SVGID_00000049187093831985541940000004496469796871147154_)"/></g><g><path d="m362.398 263.849c-1.588-2.784-3.176-5.568-4.764-8.352-3.838-6.729-12.629-8.763-18.998-4.353-47.337 32.778-84.778 74.142-112.958 125.029 8.739 4.984 13.108 7.476 21.846 12.461 28.863-44.647 65.044-79.854 110.138-106.858 6.191-3.707 8.311-11.66 4.736-17.927z" fill="url(#SVGID_00000038390615118000186910000013303630395796081044_)"/><path d="m330.996 299.496-23.937-23.937c-32.752 28.23-59.788 61.623-81.381 100.615 8.739 4.984 13.108 7.476 21.846 12.461 22.932-35.472 50.503-64.964 83.472-89.139z" fill="url(#SVGID_00000039112583657768642760000015505011967811144597_)"/></g><g><circle cx="180.022" cy="309.286" fill="url(#SVGID_00000035511297416120976190000014013744792756620933_)" r="26.503"/><path d="m153.52 309.286c0 14.637 11.866 26.503 26.503 26.503s26.503-11.866 26.503-26.503c0-3.17-.558-6.209-1.579-9.027h-49.847c-1.022 2.818-1.58 5.857-1.58 9.027z" fill="url(#SVGID_00000183941599420260882570000012926578184272462216_)"/><path d="m161.282 328.027c10.35 10.35 27.13 10.35 37.48 0s10.35-27.13 0-37.48c-2.242-2.242-4.785-3.996-7.499-5.266l-35.247 35.247c1.271 2.713 3.025 5.257 5.266 7.499z" fill="url(#SVGID_00000174562497447207514700000015748336450925209249_)"/></g><path d="m59.378 350.995c-17.293 18.5-4.175 48.718 21.148 48.718h195.495c25.323 0 38.441-30.219 21.149-48.718-64.327-68.817-173.465-68.817-237.792 0z" fill="url(#SVGID_00000145763541216932040060000013056702710743385785_)"/><path d="m59.378 350.995c-17.293 18.5-4.175 48.718 21.148 48.718h195.495c25.323 0 38.441-30.219 21.149-48.718-64.327-68.817-173.465-68.817-237.792 0z" fill="url(#SVGID_00000110457905688477287610000000009558837305477562_)"/><g><circle cx="72.689" cy="341.62" fill="url(#SVGID_00000055674461971878777950000006454996250143707520_)" r="26.503"/><path d="m46.187 341.62c0 14.637 11.866 26.503 26.503 26.503s26.503-11.866 26.503-26.503c0-3.17-.558-6.209-1.579-9.027h-49.848c-1.021 2.818-1.579 5.857-1.579 9.027z" fill="url(#SVGID_00000131333913758098709150000000859469164455036588_)"/><path d="m53.949 360.36c10.35 10.35 27.13 10.35 37.48 0s10.35-27.13 0-37.48c-2.242-2.242-4.785-3.996-7.499-5.266l-35.247 35.246c1.27 2.715 3.024 5.258 5.266 7.5z" fill="url(#SVGID_00000029767445855729632150000009501872279523003821_)"/></g><g><circle cx="157.205" cy="346.647" fill="url(#SVGID_00000114788316239284026210000005323942189514845356_)" r="26.503"/><path d="m130.702 346.647c0 14.637 11.866 26.503 26.503 26.503s26.503-11.866 26.503-26.503c0-3.17-.558-6.209-1.579-9.027h-49.847c-1.021 2.818-1.58 5.857-1.58 9.027z" fill="url(#SVGID_00000117639662960447915060000006647413684027444355_)"/><path d="m138.465 365.387c10.35 10.35 27.13 10.35 37.48 0s10.35-27.13 0-37.48c-2.242-2.242-4.785-3.996-7.499-5.266l-35.247 35.247c1.27 2.714 3.024 5.258 5.266 7.499z" fill="url(#SVGID_00000084507798427582981410000000807100946638557619_)"/></g><g><circle cx="270.882" cy="344.534" fill="url(#SVGID_00000077322069052480076340000006406521005402636212_)" r="26.503"/><path d="m244.379 344.534c0 14.637 11.866 26.503 26.503 26.503s26.503-11.866 26.503-26.503c0-3.17-.558-6.209-1.579-9.027h-49.847c-1.021 2.818-1.58 5.857-1.58 9.027z" fill="url(#SVGID_00000146477733790655008250000012092089560249608119_)"/><path d="m252.142 363.275c10.35 10.35 27.13 10.35 37.48 0s10.35-27.13 0-37.48c-2.242-2.242-4.785-3.996-7.499-5.266l-35.247 35.247c1.27 2.713 3.024 5.257 5.266 7.499z" fill="url(#SVGID_00000176736548768882676650000013416918294562649493_)"/></g><g><circle cx="239.215" cy="329.868" fill="url(#SVGID_00000173138717700773472340000005150555736036448913_)" r="26.503"/><path d="m212.713 329.868c0 14.637 11.866 26.503 26.503 26.503s26.503-11.866 26.503-26.503c0-3.17-.558-6.209-1.579-9.027h-49.847c-1.022 2.818-1.58 5.857-1.58 9.027z" fill="url(#SVGID_00000098938668062554033610000016762221393055626638_)"/><path d="m220.475 348.608c10.35 10.35 27.13 10.35 37.48 0s10.35-27.13 0-37.48c-2.242-2.242-4.785-3.996-7.499-5.266l-35.247 35.247c1.271 2.714 3.025 5.257 5.266 7.499z" fill="url(#SVGID_00000018940907731385190760000003171458107123329421_)"/></g><path d="m226.572 510h-96.595c-6.057 0-10.968-4.911-10.968-10.968v-27.477h118.531v27.477c0 6.057-4.911 10.968-10.968 10.968z" fill="url(#SVGID_00000039100383707653671210000012681723564474008237_)"/><path d="m226.572 510h-96.595c-6.057 0-10.968-4.911-10.968-10.968v-27.477h118.531v27.477c0 6.057-4.911 10.968-10.968 10.968z" fill="url(#SVGID_00000100370494652600020180000017859314567203145865_)"/><g><path d="m233.776 490.777h-111.003c-50.015 0-90.56-40.545-90.56-90.56v-33.107c0-11.045 8.954-19.998 19.998-19.998h252.126c11.045 0 19.998 8.954 19.998 19.998v33.107c.001 50.015-40.544 90.56-90.559 90.56z" fill="url(#SVGID_00000111170776076956159890000000272224388431481741_)"/><path d="m32.213 384v16.217c0 50.015 40.545 90.56 90.56 90.56h111.002c50.015 0 90.56-40.545 90.56-90.56v-16.217z" fill="url(#SVGID_00000124132067418209050900000001223226779885356210_)"/><path d="m304.338 347.112h-147.505v143.665h76.942c50.015 0 90.56-40.545 90.56-90.56v-33.107c.001-11.044-8.953-19.998-19.997-19.998z" fill="url(#SVGID_00000163044955757512463270000014051183053612494265_)"/></g></g></g></svg>