<svg id="Glyph" enable-background="new 0 0 32 32" height="512" viewBox="0 0 32 32" width="512" xmlns="http://www.w3.org/2000/svg"><path d="m13.693 7.654c-1.21-1.664-.821-5.654 1.307-5.654 1.032 0 1.872 1.178 1.979 2.684.57-1.206 2.009-2.867 3.021-2.282 1.307.754-.331 4.135-1.551 5.274-.768-.115-1.583-.176-2.449-.176-.812 0-1.581.053-2.307.154z"/><path d="m25 17c0-6-4.029-8-9-8s-9 2-9 8c0 4.336 1.976 7.833 1.07 12.621-.027.142.114.257.244.193l3.55-1.748c.085-.042.185-.042.271.001l3.729 1.864c.086.043.187.043.272 0l3.731-1.865c.084-.042.183-.043.267-.002l3.56 1.703c.129.062.266-.051.241-.192-.844-4.737 1.065-8.173 1.065-12.575zm-14 0c-.552 0-1-.448-1-1s.448-1 1-1 1 .448 1 1-.448 1-1 1zm7.865 2.416-2.632 4.212c-.107.172-.358.172-.465 0l-2.632-4.212c-.076-.122-.045-.289.07-.375 1.863-1.388 3.726-1.388 5.589 0 .115.086.146.253.07.375zm2.135-2.416c-.552 0-1-.448-1-1s.448-1 1-1 1 .448 1 1-.448 1-1 1z"/></svg>