<svg id="Capa_1" enable-background="new 0 0 512 512" height="512" viewBox="0 0 512 512" width="512" xmlns="http://www.w3.org/2000/svg"><path d="m247.772 497.146c-5.845-3.825-13.582-6.59-22.264-8.076l21.202-59.131c1.418-3.958-.639-8.316-4.596-9.734-3.958-1.417-8.316.639-9.734 4.596l-22.598 63.026c-14.371.107-27.676 3.486-36.59 9.319-3.518 2.302-4.503 7.02-2.2 10.538s7.02 4.503 10.538 2.2c6.547-4.286 17.371-6.844 28.953-6.844s22.406 2.558 28.954 6.844c1.286.841 2.732 1.244 4.161 1.244 2.482 0 4.916-1.212 6.377-3.444 2.3-3.518 1.314-8.236-2.203-10.538z" fill="#fed500"/><path d="m93.822 126.537c0 15.721-8.496 23.721-18.977 23.721s-18.977-8-18.977-23.721 7.618-44.042 18.098-44.042 19.856 28.321 19.856 44.042z" fill="#ff5426"/><path d="m73.966 82.495c-1.018 0-2.007.274-2.967.77 5.671 9.623 9.651 25.206 9.651 35.447 0 15.721-8.496 23.721-18.977 23.721-.573 0-1.137-.034-1.697-.082 3.476 5.243 8.838 7.906 14.868 7.906 10.481 0 18.977-8 18.977-23.721s-9.374-44.041-19.855-44.041z" fill="#f04424"/><path d="m112.815 0c-10.408 0-19.395 5.992-23.764 14.701-3.443-2.423-7.632-3.857-12.162-3.857-11.696 0-21.177 9.481-21.177 21.177 0 .291.032.574.044.862-.536-.048-1.076-.082-1.624-.082-9.983 0-18.075 8.092-18.075 18.075s8.093 18.075 18.075 18.075c9.388 0 17.101-7.158 17.987-16.314 1.536.354 3.128.56 4.771.56 6.81 0 12.853-3.228 16.727-8.222 4.842 5.058 11.646 8.222 19.2 8.222 14.69 0 26.599-11.909 26.599-26.599-.002-14.689-11.91-26.598-26.601-26.598z" fill="#ff5426"/><path d="m112.815 0c-3.202 0-6.267.571-9.107 1.61 10.191 3.726 17.465 13.508 17.465 24.988 0 11.479-7.271 21.259-17.459 24.987 2.838 1.039 5.901 1.612 9.101 1.612 14.69 0 26.599-11.909 26.599-26.599 0-14.689-11.908-26.598-26.599-26.598z" fill="#f04424"/><path d="m82.97 100.78h-41.187c-4.414 0-7.173-4.795-4.93-8.597 4.769-8.081 13.829-19.505 28.405-23.438z" fill="#ffd500"/><path d="m65.258 68.745c-1.552.419-3.027.938-4.455 1.513l5.279 9.548c2.721 4.921-.838 10.957-6.462 10.957h-21.902c-.301.482-.592.958-.865 1.42-2.243 3.802.516 8.597 4.93 8.597h41.187z" fill="#fbc700"/><path d="m452.819 192.059h-197.168c-16.384 0-31.43-9.045-39.117-23.514l-38.646-72.751c-17.388-32.734-51.426-53.195-88.491-53.195h-7.945c-11.925 0-22.614 8.035-25.239 19.667-2.185 9.681 1.428 19.484 8.924 25.446l22.1 17.574c2.382 1.895 3.292 5.097 2.26 7.961l-11.415 31.68c-14.546 40.368-14.609 84.536-.177 124.945l19.825 55.508.002.005c22.587 81.8 101.413 130.285 195.194 130.285 111.397 0 162.559-68.406 162.559-179.802 0-18.029 11.86-35.504 18.72-52.134 6.229-15.103-5.049-31.675-21.386-31.675z" fill="#efe2dd"/><path d="m452.819 192.059h-16.226c-6.451 13.303-13.728 27.086-13.728 41.209 0 111.396-51.162 179.803-162.559 179.803-59.13 0-112.308-19.282-149.2-54.03 32.565 61.266 101.735 96.629 181.819 96.629 111.397 0 162.558-68.406 162.558-179.802 0-18.029 11.86-35.504 18.72-52.134 6.231-15.103-5.047-31.675-21.384-31.675z" fill="#e1d3ce"/><path d="m55.883 64.02c-.462 3.001-.377 5.989.195 8.849l.801-2.222c.819-2.273.398-4.75-.996-6.627z" fill="#e1d3ce"/><circle cx="93.173" cy="72.434" fill="#554e56" r="8.068"/><path d="m345.252 498.018c-6.244-4.086-14.642-6.97-24.053-8.369v-67.471c0-4.204-3.408-7.612-7.612-7.612s-7.612 3.408-7.612 7.612v66.54c-13.877.293-26.657 3.64-35.304 9.3-3.519 2.301-4.504 7.019-2.201 10.537 1.461 2.233 3.894 3.445 6.376 3.445 1.429 0 2.875-.402 4.161-1.244 6.548-4.285 17.373-6.843 28.955-6.843 11.583 0 22.407 2.558 28.953 6.843 3.516 2.3 8.234 1.317 10.538-2.2 2.301-3.518 1.316-8.236-2.201-10.538z" fill="#fed500"/><path d="m381.38 244.078c-3.552-15.172-17.083-25.901-32.665-25.901h-89.1c-37.555 0-68 30.445-68 68s30.445 68 68 68c15.749 0 30.236-5.369 41.763-14.356l.009.016s5.068-4.288 7.278-6.59l62.613-56.694c9.011-8.189 12.878-20.619 10.102-32.475z" fill="#e1d3ce"/><path d="m381.38 244.078c-2.318-9.901-8.886-17.907-17.5-22.277.538 1.405.989 2.858 1.34 4.356 2.776 11.857-1.091 24.286-10.103 32.475l-62.613 56.693c-2.21 2.302-7.278 6.59-7.278 6.59l-.009-.015c-11.527 8.987-26.014 14.356-41.763 14.356-15.69 0-30.127-5.328-41.633-14.254 11.996 19.31 33.388 32.175 57.793 32.175 15.749 0 30.236-5.369 41.763-14.356l.009.016s5.068-4.288 7.278-6.59l62.613-56.694c9.012-8.189 12.879-20.619 10.103-32.475z" fill="#cdbfba"/></svg>