<?xml version="1.0" encoding="iso-8859-1"?>
<!-- Generator: Adobe Illustrator 19.0.0, SVG Export Plug-In . SVG Version: 6.00 Build 0)  -->
<svg version="1.1" id="Capa_1" xmlns="http://www.w3.org/2000/svg" xmlns:xlink="http://www.w3.org/1999/xlink" x="0px" y="0px"
	 viewBox="0 0 512 512" style="enable-background:new 0 0 512 512;" xml:space="preserve">
<g>
	<g>
		<path d="M479.478,90h-24.3l22.8,61.5c10.499-12.9,16.5-29.099,16.5-46.5C494.478,96.599,487.879,90,479.478,90z"/>
	</g>
</g>
<g>
	<g>
		<path d="M344.478,0c-21.899,0-41.7,12.001-52.2,30.601c-34.091-4.972-67.8,22.282-67.8,59.399c0,22.2,12,41.4,30,51.899
			c0-87.503,80.063-131.316,145.8-103.799C391.578,15.901,369.679,0,344.478,0z"/>
	</g>
</g>
<g>
	<g>
		<path d="M481.278,248.899l-56.4-152.3c-9.143-10.585-10.704-14.836-22.2-22.5v-0.298c-17.435-12.594-41.305-17.653-64.799-10.501
			c-27.111,6.782-52.046,35.14-53.401,69V227c0,8.401-6.599,15-15,15h-131.4l-0.899,0.3c-1.8,4.499-2.701,9.6-2.701,14.7
			c0,24.901,20.099,45,45,45h60c19.872,0,19.872,30,0,30h-60c-19.872,0-19.872,30,0,30h60c19.872,0,19.872,30,0,30h-30
			c-19.872,0-19.872,30,0,30h30c57.9,0,105-47.1,105-105c0-19.872,30-19.872,30,0c0,74.399-60.601,135-135,135h-30
			c-32.289,0-53.635-32.82-41.7-61.8c-29.445-7.82-43.063-42.054-25.499-68.401c-22.5-12.9-37.8-36.899-37.8-64.799
			c0-14.7,4.2-28.801,11.7-40.201C105.591,195.638,90.752,182,66.677,182c-28.799,0-52.2,23.401-52.2,52.2V257
			c0,123.6,68.401,255,195,255h89.099c74.101,0,133.801-27.599,168.602-77.701C501.978,384.2,507.077,318.199,481.278,248.899z
			 M359.478,150c-8.401,0-15-6.599-15-15s6.599-15,15-15s15,6.599,15,15S367.879,150,359.478,150z"/>
	</g>
</g>
<g>
</g>
<g>
</g>
<g>
</g>
<g>
</g>
<g>
</g>
<g>
</g>
<g>
</g>
<g>
</g>
<g>
</g>
<g>
</g>
<g>
</g>
<g>
</g>
<g>
</g>
<g>
</g>
<g>
</g>
</svg>
