<svg id="Solid" viewBox="0 0 64 64" xmlns="http://www.w3.org/2000/svg"><path d="m34.75 26.929a11.245 11.245 0 0 0 14.987 10.609 46.747 46.747 0 0 0 2.013-12.609 22.862 22.862 0 0 0 -1.41-8.378 11.248 11.248 0 0 0 -15.59 10.378zm6.25-.25a1.75 1.75 0 1 1 1.75-1.75 1.751 1.751 0 0 1 -1.75 1.75z"/><path d="m46 41.679a14.75 14.75 0 1 1 1.855-29.379c-4.255-5.1-11.095-6.121-15.855-6.121-7.376 0-19.75 2.435-19.75 18.75 0 7.044 2.5 15.908 6.113 23.167 2.188-2.809 6.462-4.918 13.637-4.918s11.449 2.109 13.637 4.922a62.641 62.641 0 0 0 2.822-6.626 14.764 14.764 0 0 1 -2.459.205zm-23-15a1.75 1.75 0 1 1 1.75-1.75 1.751 1.751 0 0 1 -1.75 1.75z"/><path d="m60.75 2a1.75 1.75 0 0 0 -3.067-1.152 21.661 21.661 0 0 1 -10.064 6.474 18.724 18.724 0 0 1 6.212 8.726 17.727 17.727 0 0 0 6.919-14.048z"/><path d="m16.381 7.322a21.67 21.67 0 0 1 -10.064-6.475 1.75 1.75 0 0 0 -3.067 1.153 17.727 17.727 0 0 0 6.919 14.048 18.724 18.724 0 0 1 6.212-8.726z"/><path d="m59.191 26.413a11.677 11.677 0 0 0 -3.954-2.127c0 .214.013.426.013.643a47.964 47.964 0 0 1 -1.45 10.971 15.971 15.971 0 0 0 8.361 1.741 1.751 1.751 0 0 0 1.587-1.891c-.025-.24-.555-5.979-4.557-9.337z"/><path d="m8.763 24.286a11.677 11.677 0 0 0 -3.954 2.127c-4 3.358-4.532 9.1-4.553 9.34a1.751 1.751 0 0 0 1.587 1.891 15.971 15.971 0 0 0 8.357-1.744 47.964 47.964 0 0 1 -1.45-10.971c0-.217.008-.429.013-.643z"/><path d="m32 46.678c-6.627 0-12 2.123-12 6.857s5.373 10.286 12 10.286 12-5.552 12-10.286-5.373-6.857-12-6.857zm-4 9.75a1.75 1.75 0 1 1 1.75-1.75 1.75 1.75 0 0 1 -1.75 1.75zm8 0a1.75 1.75 0 1 1 1.75-1.75 1.75 1.75 0 0 1 -1.75 1.75z"/></svg>