<svg clip-rule="evenodd" fill-rule="evenodd" height="512" stroke-linejoin="round" stroke-miterlimit="2" viewBox="0 0 32 32" width="512" xmlns="http://www.w3.org/2000/svg"><path d="m17.537 27.993c-.094-.231-.154-.481-.176-.742l-.788-9.5c-.059-.708.181-1.408.663-1.931.321-.349.731-.598 1.18-.725.222-.062.454-.095.689-.095h.622v-1.676c0-1.836 1.488-3.324 3.324-3.324h.003c1.836 0 3.324 1.488 3.324 3.324v1.676h.622c.711 0 1.389.297 1.87.82s.721 1.223.663 1.931l-.789 9.5c-.109 1.318-1.21 2.332-2.532 2.332h-6.318c-1.061 0-1.979-.652-2.357-1.59zm4.19-12.993h2.651v-1.676c0-.731-.592-1.324-1.324-1.324h-.003c-.731 0-1.324.593-1.324 1.324zm-10.601-12.344c2.647 0 4.796 2.149 4.796 4.796s-2.149 4.796-4.796 4.796-4.796-2.149-4.796-4.796 2.149-4.796 4.796-4.796zm4.327 25.34c-3.518.003-8.172.004-10.446.004-1.601 0-2.92-1.256-2.998-2.855 0-.009 0-.019-.001-.028-.034-1.673.018-4.269.5-7.195.255-1.546 1.578-3.49 2.926-4.311.055-.033.109-.066.163-.098.343-.205.776-.186 1.1.05 1.244.904 2.775 1.437 4.429 1.437s3.185-.533 4.429-1.437c.322-.234.751-.254 1.094-.053.056.033.112.067.169.101l.006.004c-.39.226-.748.512-1.06.851-.86.934-1.289 2.185-1.184 3.451l.788 9.5c.016.197.045.39.085.579z"/></svg>