<svg id="Layer_1" enable-background="new 0 0 512 512" height="512" viewBox="0 0 512 512" width="512" xmlns="http://www.w3.org/2000/svg"><path clip-rule="evenodd" d="m214.302 154.881h222.558l-29.272 318.707c-1.382 15.003-14.126 26.405-29.515 26.405h-218.088c-15.389 0-28.134-11.402-29.514-26.405l-26.555-289.129zm-122.778-50.044c-15.294 4.098-28.708 16.666-25.402 29.005l9.97 37.207c.577 2.153 2.561 3.616 5.202 2.908l361.88-96.965c2.644-.708 3.628-2.968 3.051-5.119l-9.97-37.207c-3.336-12.448-21.208-16.515-36.501-12.418l-94.589 25.345-5.756-21.482c-2.701-10.079-13.216-16.161-23.298-13.46l-82.319 22.058c-10.087 2.714-16.141 13.206-13.439 23.291l5.759 21.494zm110.023-29.481-5.756-21.483c-.435-1.624.526-3.3 2.148-3.735l82.298-22.052c1.641-.44 3.295.503 3.735 2.148l5.759 21.493zm-41.708 148.18 16.338 177.878h33.202l-16.337-177.878zm125.952 0h-33.063l-.449 177.878h33.064zm86.501 0h-33.203l-16.337 177.878h33.202z" fill-rule="evenodd"/></svg>