<?xml version="1.0" encoding="UTF-8"?>
<svg xmlns="http://www.w3.org/2000/svg" viewBox="0 0 512 512" width="512" height="512"><g><circle cx="256" cy="208.381" r="8"/><circle cx="256" cy="252.587" r="8"/><circle cx="256" cy="296.792" r="8"/><circle cx="215.782" cy="208.381" r="8"/><circle cx="175.564" cy="208.381" r="8"/><circle cx="135.346" cy="208.381" r="8"/><circle cx="203.891" cy="252.587" r="8"/><circle cx="192" cy="296.792" r="8"/><circle cx="151.782" cy="252.587" r="8"/><circle cx="128" cy="296.792" r="8"/><circle cx="99.673" cy="252.587" r="8"/><circle cx="64" cy="296.792" r="8"/><circle cx="296.218" cy="208.381" r="8"/><circle cx="336.436" cy="208.381" r="8"/><circle cx="376.654" cy="208.381" r="8"/><circle cx="308.109" cy="252.587" r="8"/><circle cx="320" cy="296.792" r="8"/><circle cx="360.218" cy="252.587" r="8"/><circle cx="384" cy="296.792" r="8"/><circle cx="412.327" cy="252.587" r="8"/><circle cx="448" cy="296.792" r="8"/><circle cx="256" cy="119.969" r="8"/><path d="M8,16H48.757V32a8,8,0,0,0,8,8h8V56a7.976,7.976,0,0,0,5.918,7.715c.078.025.116.036.242.071l123,29.075L141.336,159.2a8,8,0,1,0,12.539,9.939l46.512-58.686a55.987,55.987,0,0,0,111.183.332l46.25,58.354a8,8,0,1,0,12.539-9.939L317.847,92.945,442.58,63.759c.047-.012.125-.036.187-.055a8,8,0,0,0,5.99-7.735V40h8a8,8,0,0,0,8-8V16H504a8,8,0,0,0,0-16H376a8,8,0,0,0,0,16h40.757V32a8,8,0,0,0,8,8h8v7.97l-101.929.008-12.678-25.2A24.9,24.9,0,0,0,295.8,9H216.021a24.9,24.9,0,0,0-22.354,13.778L180.982,47.991,80.757,48V40h8a8,8,0,0,0,8-8V16H136a8,8,0,0,0,0-16H8A8,8,0,0,0,8,16Zm424.757,0h16v8h-16ZM296,103.969a40,40,0,0,1-80,0v-8h80Zm-88.041-74A8.979,8.979,0,0,1,216.021,25H295.8a8.977,8.977,0,0,1,8.061,4.969l9.061,18.011-114.025.01Zm-22.2,34.022c.049,0,.1.009.146.009h140c.111,0,.219-.017.329-.021l45.194,0L303.077,79.969H208.933l-67.58-15.975ZM64.757,16h16v8h-16Z"/><path d="M512,343.822a8,8,0,0,0-8-8H384a8,8,0,0,0,0,16h17.572l41,66.948H330.256L310.5,351.822H352a8,8,0,0,0,0-16H8a8,8,0,0,0,0,16H92.03L50.869,418.77H8a8,8,0,0,0,0,16H41.032L1.185,499.58A8,8,0,0,0,0,503.77V504a8,8,0,0,0,8,8H504a8,8,0,0,0,8-8v-.23a8,8,0,0,0-1.178-4.178L471.127,434.77H504a8,8,0,0,0,0-16H461.33l-41-66.948H504A8,8,0,0,0,512,343.822Zm-293.827,8h75.654c.019.071.031.142.051.212l19.695,66.736H198.427l19.7-66.736C218.142,351.964,218.154,351.893,218.173,351.822ZM22.168,496l37.646-61.23H96a8,8,0,0,0,0-16H69.651l41.161-66.948H201.5L181.744,418.77H128a8,8,0,0,0,0,16h49.022L158.952,496Zm153.466,0,18.071-61.23H318.3L336.366,496Zm314.227,0H353.048l-18.07-61.23H452.366Z"/></g></svg>
