<?xml version="1.0" encoding="utf-8"?>
<!-- Generator: Adobe Illustrator 24.0.0, SVG Export Plug-In . SVG Version: 6.00 Build 0)  -->
<svg version="1.1" id="Layer_1" xmlns="http://www.w3.org/2000/svg" xmlns:xlink="http://www.w3.org/1999/xlink" x="0px" y="0px"
	 viewBox="0 0 453.4 512" style="enable-background:new 0 0 453.4 512;" xml:space="preserve">
<style type="text/css">
	.st0{fill-rule:evenodd;clip-rule:evenodd;}
</style>
<path class="st0" d="M289.5,375.9c4.3,0,7.9,3.5,7.9,7.9s-3.5,7.9-7.9,7.9c-4.3,0-7.9-3.5-7.9-7.9
	C281.6,379.5,285.2,375.9,289.5,375.9C289.5,375.9,289.5,375.9,289.5,375.9z M158.3,375.9c4.3,0,7.9,3.5,7.9,7.9s-3.5,7.9-7.9,7.9
	c-4.3,0-7.9-3.5-7.9-7.9C150.4,379.5,153.9,375.9,158.3,375.9C158.3,375.9,158.3,375.9,158.3,375.9z M311.3,291.9
	c23,7.6,44.5,19.1,63.6,34c10.4,8.1,16.5,20.4,16.8,33.6v84h-65.6l-9.2-67.1c-0.7-5.2-5.2-9.1-10.5-9h-2.9L311.3,291.9L311.3,291.9z
	 M223.7,275.5c21,0.1,41.8,2.9,62,8.5l-8.6,83.4H170.2l-8.6-83.3C181.9,278.7,202.7,275.8,223.7,275.5L223.7,275.5z M222.1,157.7
	c28.5-0.2,56.9,1.3,85.2,4.6c0.3,2.7,0.5,5.4,0.4,8.1c0,46.4-37.6,84-84,84s-84-37.6-84-84c-0.1-2.9,0.1-5.8,0.4-8.6
	C167.3,159,194.7,157.6,222.1,157.7L222.1,157.7z M184.1,34c22.3,0,26.8,5.8,40.2,5.8s17.9-5.8,40.2-5.8c21.2,0,31.2,46.1,34.4,72
	c54.4,16.3,72.8,30.1,72.7,41.2c0,23.3-11.5-5.3-149.6-5.3c-140.1,0-149.6,28.5-149.6,5.3c0-11.2,18.8-25.1,73.5-41.4
	C150.2,79.8,163.1,34,184.1,34L184.1,34z M136.2,291.9l7.8,75.5H141c-5.3-0.1-9.8,3.8-10.5,9l-9.2,67.1H55.8v-84
	c0.3-13.2,6.4-25.5,16.8-33.6C91.7,311,113.2,299.5,136.2,291.9L136.2,291.9z"/>
</svg>
