<svg id="Layer_1" enable-background="new 0 0 512 512" height="512" viewBox="0 0 512 512" width="512" xmlns="http://www.w3.org/2000/svg"><path d="m415.204 492.815c2.951 6.323 5.686 12.722 8.221 19.185h58.546c8.292 0 15.015-6.722 15.015-15.015v-19.392c-28.491 1.323-55.926 6.427-81.782 15.222z"/><path d="m428.046 262.552v-33.612c18.581-6.281 32-23.868 32-44.542v-64c0-25.924-21.091-47.015-47.015-47.015s-47.015 21.091-47.015 47.015v64c0 20.674 13.419 38.261 32 44.542v39.27c9.911-2.175 19.925-4.06 30.03-5.658z"/><path d="m79.015 261.791v-42.235c18.581-6.281 32-23.868 32-44.542v-128c0-25.924-21.091-47.014-47.015-47.014s-47.015 21.09-47.015 47.015v128c0 20.674 13.419 38.261 32 44.542v38.66c10.088.911 20.102 2.101 30.03 3.574z"/><path d="m207.015 298.418v-44.339c18.581-6.281 32-23.868 32-44.542v-128c0-25.924-21.091-47.015-47.015-47.015s-47.015 21.09-47.015 47.015v128c0 20.674 13.419 38.261 32 44.542v32.333c10.167 3.681 20.185 7.676 30.03 12.006z"/><path d="m496.985 350.034c-43.892 1.455-86.381 9.278-126.501 23.353-10.938 3.837-21.569 8.099-31.888 12.758 8.602 8.393 16.751 17.123 24.457 26.155 6.085-2.513 12.274-4.893 18.588-7.109 36.54-12.819 75.275-20.003 115.343-21.44v-33.717z"/><path d="m314.406 364.362c14.768-7.245 30.153-13.703 46.136-19.311 43.313-15.195 89.146-23.59 136.443-25.059v-18.008c0-8.641-7.278-15.531-15.902-14.994-71.027 4.419-138.251 23.938-196.039 55.065 10.188 7.083 19.991 14.516 29.362 22.307z"/><path d="m391.584 433.528c-3.108 1.09-6.174 2.234-9.219 3.402 6.779 9.439 13.054 19.101 18.785 28.979.533-.19 1.058-.389 1.593-.577 29.774-10.445 61.413-16.413 94.243-17.805v-33.734c-36.66 1.418-72.051 8.034-105.402 19.735z"/><path d="m121.07 512h19.05c-12.634-7.096-26.261-13.23-40.803-18.332-26.589-9.328-54.886-14.709-84.302-16.075v19.392c0 8.292 6.722 15.015 15.015 15.015z"/><path d="m141.516 373.387c-40.12-14.076-82.61-21.899-126.501-23.353v33.718c40.068 1.436 78.803 8.621 115.343 21.44 38.635 13.554 73.05 32.723 102.286 56.974 18.272 15.155 33.947 31.893 46.704 49.835h40.183c-16.22-27.757-38.12-53.175-65.369-75.777-32.323-26.813-70.224-47.954-112.646-62.837z"/><path d="m213.473 485.279c-26.485-21.969-57.794-39.38-93.057-51.751-33.351-11.701-68.742-18.317-105.402-19.734v33.734c32.831 1.392 64.469 7.36 94.243 17.805 31.478 11.043 59.301 26.483 82.697 45.889.31.257.616.52.925.779h48.202c-8.236-9.371-17.461-18.306-27.608-26.722z"/><path d="m15.015 301.979v18.013c47.296 1.469 93.13 9.864 136.443 25.059 45.796 16.066 86.801 38.965 121.876 68.059 34.825 28.886 61.825 62.118 80.38 98.891h37.217c-55.391-126.068-197.728-214.876-359.894-225.004-8.672-.542-16.022 6.293-16.022 14.982z"/></svg>