<?xml version="1.0" encoding="utf-8"?>
<!-- Generator: Adobe Illustrator 18.1.0, SVG Export Plug-In . SVG Version: 6.00 Build 0)  -->
<svg version="1.1" id="Layer_1" xmlns="http://www.w3.org/2000/svg" xmlns:xlink="http://www.w3.org/1999/xlink" x="0px" y="0px"
	 viewBox="0 0 500 500" enable-background="new 0 0 500 500" xml:space="preserve">
<path fill="#010101" d="M434.5,22.3L369,89.1v34.3h-53.4V89.1L250,22.3l-65.5,66.8v34.3h-53.4V89.1L65.5,22.3L0,89.1v388.6h131
	v-32.1h53.4v32.1h131v-32.1H369v32.1h131V89.1L434.5,22.3z M65.5,439.9c-5,0-9.1-4-9.1-9.1c0-5,4-9.1,9.1-9.1s9.1,4,9.1,9.1
	S70.6,439.9,65.5,439.9z M65.5,147.2c-5,0-9.1-4-9.1-9.1s4-9.1,9.1-9.1s9.1,4,9.1,9.1C74.6,143,70.6,147.2,65.5,147.2z M131.1,416.1
	V152.8h53.4v263.3H131.1z M250,439.9c-5,0-9.1-4-9.1-9.1c0-5,4-9.1,9.1-9.1s9.1,4,9.1,9.1S255,439.9,250,439.9z M250,147.2
	c-5,0-9.1-4-9.1-9.1s4-9.1,9.1-9.1s9.1,4,9.1,9.1C259,143,255,147.2,250,147.2z M315.6,416.1V152.8H369v263.3H315.6z M434.5,439.9
	c-5,0-9.1-4-9.1-9.1c0-5,4-9.1,9.1-9.1c5,0,9.1,4,9.1,9.1S439.4,439.9,434.5,439.9z M434.5,147.2c-5,0-9.1-4-9.1-9.1s4-9.1,9.1-9.1
	c5,0,9.1,4,9.1,9.1C443.5,143,439.4,147.2,434.5,147.2z"/>
</svg>
