<svg height="512" viewBox="0 0 50 60" width="512" xmlns="http://www.w3.org/2000/svg"><g id="Page-1" fill="none" fill-rule="evenodd"><g id="021---Fertiliser" fill="rgb(0,0,0)" fill-rule="nonzero"><path id="Shape" d="m10.194 57.3c4.8661257 1.0600055 9.8262587 1.6295196 14.806 1.7 4.9797413-.0704804 9.9398743-.6399945 14.806-1.7 2.1103965 1.6754642 4.7064936 2.6226889 7.4 2.7 1.1859484-.0152533 2.213979-.8247198 2.507-1.974.813-2.371-.167-6.59-2.61-8.876 1.1295047-6.32427 1.7637634-12.7270397 1.897-19.15-.1319156-6.4228557-.7648368-12.8256246-1.893-19.15 2.443-2.286 3.423-6.5 2.61-8.876-.293021-1.14928023-1.3210516-1.9587467-2.507-1.974-2.6935064.07731114-5.2896035 1.02453575-7.4 2.7-4.8674338-1.06027103-9.8289202-1.62978669-14.81-1.7-4.9797413.07048037-9.9398743.6399945-14.806 1.7-2.11148314-1.67627441-4.70911377-2.62354651-7.404-2.7-1.18594843.0152533-2.21397904.82471977-2.507 1.974-.813 2.371.167 6.59 2.61 8.876-1.12816318 6.3243754-1.76108441 12.7271443-1.893 19.15.13191559 6.4228557.76483682 12.8256246 1.893 19.15-2.443 2.286-3.423 6.505-2.61 8.876.29302096 1.1492802 1.32105157 1.9587467 2.507 1.974 2.69488623-.0764535 5.29251686-1.0237256 7.404-2.7zm-8.019.075c-.35895345-1.9625386.06071722-3.9877186 1.17-5.646.063.34.123.665.181.972.06103986.3560853.30940015.6515597.64968281.7729282.34028266.1213684.71957123.0497572.99217657-.187327s.39613531-.602773.32314062-.9566012c-1.45985286-7.359568-2.29316994-14.8296484-2.491-22.33.19766084-7.5013556 1.03097871-14.9724468 2.491-22.333.08210045-.5335625-.27410813-1.0359729-.80477403-1.13508455-.53066591-.09911165-1.04420439.24085745-1.16022597.76808455-.058.307-.118.632-.181.972-1.10928278-1.65828139-1.52895345-3.68346136-1.17-5.646.213-.626.485-.626.615-.626 1.66319032.06433715 3.28950247.5090586 4.754 1.3l-.3.073c-.52190862.14426785-.83417637.6777362-.70444171 1.20344595.12973465.52570974.65433545.85265567 1.18344171.73755405 5.651995-1.42723405 11.4486333-2.20360849 17.277-2.314 5.8285478.10900678 11.6255237.88403943 17.278 2.31.5291063.11510162 1.0537071-.21184431 1.1834417-.73755405.1297347-.52570975-.1825331-1.0591781-.7044417-1.20344595l-.3-.073c1.4645334-.78940123 3.0904685-1.23274477 4.753-1.296.13 0 .4 0 .615.622.3589534 1.96253864-.0607172 3.98771861-1.17 5.646-.063-.34-.123-.665-.181-.972-.0610399-.35608528-.3094002-.65155973-.6496828-.77292819-.3402827-.12136845-.7195712-.04975723-.9921766.18732698-.2726053.2370842-.3961353.60277305-.3231406.95660121 1.4600213 7.3605532 2.2933392 14.8316444 2.491 22.333-.1976608 7.5013556-1.0309787 14.9724468-2.491 22.333-.0729947.3538282.0505353.719517.3231406.9566012.2726054.2370842.6518939.3086954.9921766.187327.3402826-.1213685.5886429-.4168429.6496828-.7729282.058-.307.118-.632.181-.972 1.1092828 1.6582814 1.5289534 3.6834614 1.17 5.646-.213.622-.485.622-.615.622-1.6631903-.0643371-3.2895025-.5090586-4.754-1.3l.3-.073c.5219086-.1442678.8341764-.6777362.7044417-1.2034459-.1297346-.5257098-.6543354-.8526557-1.1834417-.7375541-5.651995 1.4272341-11.4486333 2.2036085-17.277 2.314-5.8285478-.1090068-11.6255237-.8840394-17.278-2.31-.35072872-.0969497-.72643831.0042684-.9809982.264286-.25455988.2600176-.34778643.6377895-.24341961.986383.10436683.3485935.38985219.6129814.74541781.690331l.3.073c-1.46453339.7894012-3.09046845 1.2327448-4.753 1.296-.13 0-.402 0-.615-.622z"/><path id="Shape" d="m10 30c0 8.2842712 6.7157288 15 15 15s15-6.7157288 15-15-6.7157288-15-15-15c-8.2803876.0093685-14.9906315 6.7196124-15 15zm15 13c-3.5010165.0003599-6.8531514-1.4161723-9.293-3.927.5665163-.6811464 1.4070548-1.074473 2.293-1.073.6755238.0018417 1.329572.2375252 1.851.667.2386938.1932997.5529782.266185.8523877.197676.2994095-.0685089.5507272-.2708116.6816123-.548676.6046912-1.2820524 1.839182-2.1515138 3.25-2.289-.1385291.5353115-.3214976 1.0581264-.547 1.563-.1518031.3266959-.1161561.7097912.093317 1.0028704s.5603926.4508391.9186404.4129853c.3582479-.0378538.6684471-.2654699.8120426-.5958557.2976254-.6629842.5349178-1.3514333.709-2.057.8766224.3968747 1.5834396 1.0927033 1.994 1.963.1308851.2778644.3822028.4801671.6816123.548676.2994095.068509.6136939-.0043763.8523877-.197676.521428-.4294748 1.1754762-.6651583 1.851-.667.8859452-.001473 1.7264837.3918536 2.293 1.073-2.4398486 2.5108277-5.7919835 3.9273599-9.293 3.927zm.723-16.258c-.0662298-1.0498897.2832775-2.0836841.973-2.878.97-.843 2.792-.63 3.54-.5.0312486.0164615.0543811.0450157.064.079.027.754-.015 2.6-.966 3.43s-2.772.626-3.454.513zm-1.785 1.121c-.647.474-2.119 1.405-3.3 1.116-1.1378221-.4901536-2.0198708-1.4323585-2.434-2.6-.0080768-.0401867.0002009-.0819352.023-.116.8253112-.6736887 1.8265991-1.0964162 2.885-1.218.1641033-.0008107.3276773.0186704.487.058.9689801.3977403 1.7482677 1.1523284 2.177 2.108zm14.062 2.137c.0003721 2.6970965-.8441728 5.3265512-2.415 7.519-.9386812-.9728271-2.2331458-1.5213046-3.585-1.519-.7436421.0020465-1.4771009.1730159-2.145.5-.7242406-.9982046-1.7360213-1.7514579-2.9-2.159.1296591-1.6361057-.0125998-3.2823892-.421-4.872.2.014.4.032.616.032 1.2629843.0590868 2.5051418-.3376938 3.5-1.118 1.541-1.352 1.7-3.717 1.65-5.012-.0490886-.9775824-.7634443-1.7933386-1.726-1.971-1.268-.224-3.63-.4-5.194.963-.5876042.5406596-1.0222203 1.2267322-1.26 1.989-.5603765-.5698059-1.2630056-.9792989-2.035-1.186-1.88-.477-3.787.551-5.055 1.5-.781433.6057863-1.0435347 1.6695136-.633 2.569.679 1.428 1.884 3.228 3.764 3.692.3158281.0773506.6398378.1162989.965.116 1.2326142-.06142 2.4227353-.470145 3.433-1.179.3517006 1.3514778.4867128 2.7502043.4 4.144-1.9112142.0214049-3.6986611.9492739-4.816 2.5-.6666382-.3294563-1.3994111-.5031607-2.143-.508-1.3518542-.0023046-2.6463188.5461729-3.585 1.519-3.250713-4.5755442-3.1958855-10.7212135.1359433-15.2380327 3.3318288-4.5168193 9.1873744-6.3835926 14.5186784-4.6286175s8.9330256 6.7349207 8.9303783 12.3476502z"/><path id="Shape" d="m8.1 12.943c5.4293973-1.9181076 11.1418246-2.9128812 16.9-2.943 5.7581754.0301188 11.4706027 1.0248924 16.9 2.943.3369015.1189694.7116807.049167.983162-.1831135.2714812-.2322805.3984201-.5917501.333-.943-.0654202-.35125-.3132605-.6409171-.650162-.7598865-11.357235-4.05699223-23.768765-4.05699223-35.126 0-.52080451.1839108-.7939108.7551955-.60999998 1.276s.75519546.7939108 1.27599998.61z"/><path id="Shape" d="m7.437 48.943c5.6380684 2.0096771 11.5774812 3.0434859 17.563 3.057 5.9855188-.0135141 11.9249316-1.0473229 17.563-3.057.5208045-.1839108.7939108-.7551955.61-1.276s-.7551955-.7939108-1.276-.61c-5.4284468 1.9177775-11.1398325 2.9125463-16.897 2.943-5.7581754-.0301188-11.4706027-1.0248924-16.9-2.943-.52080452-.1839108-1.09208918.0891955-1.276.61s.08919548 1.0920892.61 1.276z"/></g></g></svg>