<svg id="Capa_1" enable-background="new 0 0 510 510" height="512" viewBox="0 0 510 510" width="512" xmlns="http://www.w3.org/2000/svg" xmlns:xlink="http://www.w3.org/1999/xlink"><linearGradient id="lg1"><stop offset="0" stop-color="#a2e62e"/><stop offset=".1231" stop-color="#97de30"/><stop offset=".3395" stop-color="#79cb36"/><stop offset=".6234" stop-color="#4aab3f"/><stop offset=".9609" stop-color="#09804c"/><stop offset="1" stop-color="#017b4e"/></linearGradient><linearGradient id="SVGID_1_" gradientTransform="matrix(.707 -.707 .707 .707 559.048 40.008)" gradientUnits="userSpaceOnUse" x1="-239.97" x2="-140.119" xlink:href="#lg1" y1="-157.389" y2="-157.389"/><linearGradient id="lg2"><stop offset="0" stop-color="#017b4e" stop-opacity="0"/><stop offset=".4829" stop-color="#01754a" stop-opacity=".483"/><stop offset="1" stop-color="#026841"/></linearGradient><linearGradient id="SVGID_2_" gradientTransform="matrix(.707 -.707 .707 .707 559.048 40.008)" gradientUnits="userSpaceOnUse" x1="-227.616" x2="-155.84" xlink:href="#lg2" y1="-155.029" y2="-196.49"/><linearGradient id="SVGID_3_" gradientTransform="matrix(.707 -.707 .707 .707 559.048 40.008)" gradientUnits="userSpaceOnUse" x1="-188.75" x2="-188.75" xlink:href="#lg2" y1="-165.228" y2="-99.21"/><linearGradient id="SVGID_4_" gradientTransform="matrix(.707 -.707 .707 .707 559.048 40.008)" gradientUnits="userSpaceOnUse" x1="-263.453" x2="-226.897" xlink:href="#lg2" y1="-142.936" y2="-148.731"/><linearGradient id="SVGID_5_" gradientTransform="matrix(.707 -.707 .707 .707 559.048 40.008)" gradientUnits="userSpaceOnUse" x1="-220.563" x2="-220.563" xlink:href="#lg2" y1="-136.25" y2="-104.22"/><linearGradient id="SVGID_6_" gradientUnits="userSpaceOnUse" x1="393.528" x2="449.563" y1="200.472" y2="256.508"><stop offset="0" stop-color="#eaf6ff"/><stop offset="1" stop-color="#b3dafe"/></linearGradient><linearGradient id="lg3"><stop offset="0" stop-color="#d8ecfe" stop-opacity="0"/><stop offset=".7867" stop-color="#9bd1fe" stop-opacity=".787"/><stop offset="1" stop-color="#8ac9fe"/></linearGradient><linearGradient id="SVGID_7_" gradientUnits="userSpaceOnUse" x1="446.469" x2="400.469" xlink:href="#lg3" y1="229.687" y2="209.02"/><linearGradient id="SVGID_8_" gradientUnits="userSpaceOnUse" x1="403.386" x2="403.386" xlink:href="#lg3" y1="194.5" y2="227.805"/><linearGradient id="SVGID_9_" gradientTransform="matrix(.707 .707 -.707 .707 -62.008 -341.402)" gradientUnits="userSpaceOnUse" x1="621.543" x2="746.752" xlink:href="#lg1" y1="-64.916" y2="-64.916"/><linearGradient id="SVGID_10_" gradientTransform="matrix(.707 .707 -.707 .707 -62.008 -341.402)" gradientUnits="userSpaceOnUse" x1="637.034" x2="727.038" xlink:href="#lg2" y1="-61.957" y2="-113.947"/><linearGradient id="SVGID_11_" gradientTransform="matrix(.707 .707 -.707 .707 -62.008 -341.402)" gradientUnits="userSpaceOnUse" x1="685.771" x2="685.771" xlink:href="#lg2" y1="-74.745" y2="8.038"/><linearGradient id="SVGID_12_" gradientTransform="matrix(.707 .707 -.707 .707 -62.008 -341.402)" gradientUnits="userSpaceOnUse" x1="592.096" x2="637.936" xlink:href="#lg2" y1="-46.792" y2="-54.06"/><linearGradient id="SVGID_13_" gradientTransform="matrix(.707 .707 -.707 .707 -62.008 -341.402)" gradientUnits="userSpaceOnUse" x1="645.878" x2="645.878" xlink:href="#lg2" y1="-38.408" y2="1.756"/><linearGradient id="lg4"><stop offset="0" stop-color="#fe9738"/><stop offset="1" stop-color="#fd4755"/></linearGradient><linearGradient id="SVGID_14_" gradientTransform="matrix(.707 .707 -.707 .707 -62.008 -341.402)" gradientUnits="userSpaceOnUse" x1="620.799" x2="749.834" xlink:href="#lg4" y1="133.819" y2="133.819"/><linearGradient id="lg5"><stop offset="0" stop-color="#fe7701" stop-opacity="0"/><stop offset="1" stop-color="#ac2538"/></linearGradient><linearGradient id="SVGID_15_" gradientTransform="matrix(-.707 -.707 -.707 .707 1974.722 1695.329)" gradientUnits="userSpaceOnUse" x1="2239.084" x2="2309.522" xlink:href="#lg5" y1="94.752" y2="-38.296"/><linearGradient id="SVGID_16_" gradientTransform="matrix(-.707 -.707 -.707 .707 1974.722 1695.329)" gradientUnits="userSpaceOnUse" x1="2224.289" x2="2101.03" xlink:href="#lg5" y1="162.317" y2="71.759"/><linearGradient id="SVGID_17_" gradientUnits="userSpaceOnUse" x1="296.605" x2="284.605" xlink:href="#lg5" y1="188.915" y2="244.915"/><linearGradient id="SVGID_18_" gradientUnits="userSpaceOnUse" x1="84.441" x2="141.441" xlink:href="#lg4" y1="141.403" y2="235.403"/><linearGradient id="SVGID_19_" gradientUnits="userSpaceOnUse" x1="192.131" x2="62.439" xlink:href="#lg5" y1="214.45" y2="-13.088"/><linearGradient id="SVGID_20_" gradientUnits="userSpaceOnUse" x1="91.828" x2="91.828" xlink:href="#lg1" y1="76.139" y2="128.776"/><linearGradient id="SVGID_21_" gradientUnits="userSpaceOnUse" x1="88.982" x2="111.51" xlink:href="#lg2" y1="94.705" y2="94.705"/><linearGradient id="lg6"><stop offset="0" stop-color="#c5715a"/><stop offset="1" stop-color="#883f2e"/></linearGradient><linearGradient id="SVGID_22_" gradientUnits="userSpaceOnUse" x1="108.155" x2="139.539" xlink:href="#lg6" y1="85.054" y2="99.208"/><linearGradient id="SVGID_23_" gradientUnits="userSpaceOnUse" x1="118.751" x2="118.751" xlink:href="#lg5" y1="225.677" y2="286.224"/><linearGradient id="SVGID_24_" gradientUnits="userSpaceOnUse" x1="407.476" x2="322.976" xlink:href="#lg5" y1="195.317" y2="188.817"/><linearGradient id="SVGID_25_" gradientUnits="userSpaceOnUse" x1="223.468" x2="258.133" xlink:href="#lg6" y1="93.985" y2="109.618"/><linearGradient id="SVGID_26_" gradientUnits="userSpaceOnUse" x1="209.889" x2="259.389" y1="137.545" y2="259.045"><stop offset="0" stop-color="#fd4755"/><stop offset="1" stop-color="#d2024e"/></linearGradient><linearGradient id="SVGID_27_" gradientUnits="userSpaceOnUse" x1="238.231" x2="238.231" y1="223.817" y2="352.164"><stop offset="0" stop-color="#c00148" stop-opacity="0"/><stop offset="1" stop-color="#6d3326"/></linearGradient><linearGradient id="SVGID_28_" gradientUnits="userSpaceOnUse" x1="206.894" x2="386.232" xlink:href="#lg6" y1="293.106" y2="472.444"/><linearGradient id="lg7"><stop offset="0" stop-color="#883f2e" stop-opacity="0"/><stop offset="1" stop-color="#6d3326"/></linearGradient><linearGradient id="SVGID_29_" gradientUnits="userSpaceOnUse" x1="255" x2="255" xlink:href="#lg7" y1="341.911" y2="516.159"/><linearGradient id="SVGID_30_" gradientUnits="userSpaceOnUse" x1="180.388" x2="417.842" xlink:href="#lg7" y1="225.497" y2="552.758"/><linearGradient id="SVGID_31_" gradientUnits="userSpaceOnUse" x1="232.227" x2="361.993" xlink:href="#lg7" y1="261.747" y2="562.164"/><linearGradient id="SVGID_32_" gradientUnits="userSpaceOnUse" x1="257.28" x2="257.28" xlink:href="#lg7" y1="399" y2="290.958"/><linearGradient id="SVGID_33_" gradientUnits="userSpaceOnUse" x1="255" x2="255" xlink:href="#lg6" y1="229.923" y2="291.176"/><linearGradient id="SVGID_34_" gradientUnits="userSpaceOnUse" x1="255" x2="255" xlink:href="#lg7" y1="265.515" y2="296.515"/><g><g><path d="m340.841 52.317c-.017 0-.034 0-.052 0-3.234.036-6.064-2.162-6.753-5.322-.093-.429-.187-.851-.28-1.266-1.647-7.339-7.23-13.216-14.528-15.033-5.678-1.413-12.525-2.162-18.33-.049-4.733 1.722-8.771 5.347-11.967 9.192-4.99-3.41-11.204-4.8-17.32-3.607-6.67 1.301-14.243 3.874-19.315 8.946-5.073 5.073-7.646 12.645-8.947 19.315-1.193 6.116.197 12.33 3.607 17.32-3.844 3.196-7.469 7.235-9.192 11.968-2.118 5.818-1.36 12.682.059 18.368 1.817 7.278 7.68 12.842 14.999 14.485.422.095.852.19 1.29.285 3.16.689 5.358 3.519 5.322 6.753 0 .017 0 .035-.001.052-.051 5.404 3.4 8.672 8.869 8.484 16.314-.562 48.549-4.627 58.023-13.11.367-.304.689-.627.964-.97.377-.43.716-.868.973-1.319 0 0-.047-.05-.138-.144.099-.273.166-.557.216-.846 1.184-.327 2.18-.865 2.956-1.641s1.314-1.772 1.641-2.956c.289-.05.572-.116.846-.216.094.091.144.138.144.138.452-.257.889-.596 1.319-.973.343-.275.666-.597.97-.964 8.483-9.474 12.547-41.709 13.11-58.023.188-5.467-3.08-8.918-8.485-8.867z" fill="url(#SVGID_1_)"/><path d="m294.196 44.789c-5.315-6.88-14.051-10.22-22.585-8.557-6.67 1.301-14.243 3.874-19.315 8.947-5.073 5.073-7.646 12.645-8.946 19.315-1.664 8.533 1.676 17.27 8.557 22.585 22.296 17.225 69.287 47.203 79.39 37.1 10.101-10.103-19.877-57.093-37.101-79.39z" fill="url(#SVGID_2_)"/><path d="m340.839 52.316c-.014.005-.033.005-.047 0-3.234.038-6.067-2.161-6.757-5.32-.09-.43-.189-.851-.274-1.267-1.65-7.334-7.23-13.216-14.531-15.032-5.679-1.414-12.526-2.161-18.333-.052-4.728 1.721-8.767 5.343-11.958 9.188 1.977 1.343 3.754 3.007 5.258 4.956 15.897 20.588 42.67 62.209 38.741 76.437.288-.052.572-.118.842-.218.099.09.147.137.147.137.454-.255.889-.596 1.319-.969.345-.279.667-.601.969-.969 8.488-9.471 12.55-41.706 13.107-58.019.194-5.472-3.078-8.924-8.483-8.872z" fill="url(#SVGID_3_)"/><path d="m251.904 87.08c-1.948-1.504-3.613-3.282-4.956-5.258-3.844 3.192-7.466 7.23-9.188 11.958-2.114 5.821-1.357 12.687.062 18.37 1.82 7.277 7.679 12.843 15.004 14.484.416.095.851.189 1.286.284 3.159.69 5.357 3.523 5.32 6.757.005.014.005.033 0 .047-.052 5.405 3.4 8.677 8.871 8.483 16.314-.558 48.548-4.62 58.019-13.107.369-.303.69-.624.969-.969.374-.43.714-.865.969-1.319 0 0-.047-.047-.137-.147.099-.269.165-.553.218-.842-14.228 3.93-55.848-22.843-76.437-38.741z" fill="url(#SVGID_4_)"/><path d="m261.849 140.107c1.538 1.439 3.748 2.195 6.453 2.101 16.314-.562 48.549-4.627 58.023-13.11.367-.304.689-.627.964-.97.377-.43.716-.868.973-1.319 0 0-.047-.05-.138-.144.099-.273.166-.557.216-.846 1.184-.327 2.18-.865 2.956-1.641s1.314-1.772 1.641-2.956c.289-.05.572-.116.846-.216.094.091.144.138.144.138.452-.257.889-.596 1.319-.973.343-.275.666-.597.97-.964 8.483-9.474 12.547-41.709 13.11-58.023.093-2.705-.662-4.915-2.101-6.453z" fill="url(#SVGID_5_)"/></g><circle cx="403.386" cy="210.33" fill="url(#SVGID_6_)" r="81.746"/><circle cx="403.386" cy="210.33" fill="url(#SVGID_7_)" r="81.746"/><path d="m321.64 210.33c0 45.147 36.599 81.746 81.746 81.746s81.746-36.599 81.746-81.746c0-11.486-2.379-22.413-6.655-32.33h-150.182c-4.276 9.917-6.655 20.844-6.655 32.33z" fill="url(#SVGID_8_)"/><g><g><path d="m481.179 130.902c0-.021 0-.043-.001-.065-.045-4.056 2.711-7.604 6.673-8.468.538-.117 1.067-.234 1.587-.351 9.202-2.065 16.573-9.066 18.85-18.218 1.772-7.12 2.711-15.706.062-22.985-2.16-5.934-6.705-10.999-11.526-15.007 4.276-6.258 6.019-14.049 4.523-21.719-1.631-8.364-4.858-17.86-11.218-24.22-6.361-6.361-15.856-9.588-24.221-11.219-7.669-1.496-15.461.247-21.718 4.523-4.008-4.821-9.073-9.366-15.007-11.526-7.295-2.655-15.903-1.706-23.032.074-9.125 2.279-16.103 9.631-18.163 18.809-.119.53-.238 1.069-.358 1.617-.864 3.963-4.413 6.718-8.468 6.674-.022 0-.043 0-.065-.001-6.777-.064-10.875 4.264-10.638 11.121.705 20.457 5.802 60.878 16.439 72.758.381.461.786.865 1.217 1.209.54.472 1.088.898 1.654 1.22 0 0 .062-.059.18-.174.343.124.698.208 1.061.27.41 1.484 1.084 2.733 2.058 3.707.973.973 2.222 1.647 3.707 2.058.063.362.146.718.27 1.061-.114.118-.173.181-.173.181.322.566.748 1.115 1.22 1.654.345.43.748.836 1.209 1.217 11.88 10.637 52.301 15.734 72.758 16.439 6.857.236 11.185-3.862 11.12-10.639z" fill="url(#SVGID_9_)"/><path d="m490.619 72.41c8.627-6.665 12.816-17.62 10.73-28.32-1.631-8.364-4.858-17.86-11.219-24.221s-15.856-9.587-24.22-11.218c-10.701-2.087-21.655 2.102-28.32 10.729-21.599 27.959-59.19 86.882-46.521 99.551 12.668 12.669 71.591-24.922 99.55-46.521z" fill="url(#SVGID_10_)"/><path d="m481.181 130.899c-.006-.018-.006-.042 0-.059-.047-4.056 2.71-7.607 6.671-8.473.54-.113 1.067-.237 1.589-.344 9.197-2.069 16.573-9.066 18.85-18.221 1.773-7.121 2.71-15.707.065-22.988-2.158-5.929-6.7-10.993-11.521-14.995-1.684 2.478-3.771 4.708-6.214 6.593-25.817 19.935-78.007 53.507-95.849 48.58.065.362.148.717.273 1.055-.113.125-.172.184-.172.184.32.569.747 1.115 1.215 1.654.35.433.753.836 1.216 1.216 11.877 10.643 52.297 15.737 72.754 16.436 6.86.242 11.188-3.861 11.123-10.638z" fill="url(#SVGID_11_)"/><path d="m437.588 19.379c1.886-2.443 4.115-4.53 6.593-6.214-4.002-4.821-9.066-9.362-14.995-11.521-7.299-2.65-15.909-1.702-23.036.077-9.125 2.283-16.104 9.629-18.162 18.814-.118.522-.237 1.067-.356 1.613-.866 3.961-4.417 6.718-8.473 6.671-.018.006-.042.006-.059 0-6.777-.065-10.88 4.263-10.637 11.123.7 20.456 5.793 60.877 16.436 72.754.38.462.783.866 1.216 1.216.54.468 1.085.895 1.654 1.216 0 0 .059-.059.184-.172.338.125.694.208 1.055.273-4.927-17.843 28.645-70.033 48.58-95.85z" fill="url(#SVGID_12_)"/><path d="m371.094 31.849c-1.805 1.929-2.752 4.699-2.635 8.092.705 20.457 5.802 60.878 16.439 72.758.381.461.786.865 1.217 1.209.54.472 1.088.898 1.654 1.22 0 0 .062-.059.18-.174.343.124.698.208 1.061.27.41 1.484 1.084 2.733 2.058 3.707.973.973 2.222 1.647 3.707 2.058.063.362.146.718.27 1.061-.114.118-.173.181-.173.181.322.566.748 1.115 1.22 1.654.345.43.748.836 1.209 1.217 11.88 10.637 52.301 15.734 72.758 16.439 3.393.117 6.163-.83 8.092-2.635z" fill="url(#SVGID_13_)"/></g><g><path d="m403.497 216.15c17.839-13.781 26.499-36.432 22.185-58.557-3.372-17.295-10.044-36.928-23.196-50.08s-32.785-19.824-50.08-23.196c-22.125-4.314-44.776 4.346-58.557 22.185-44.66 57.809-122.385 179.644-96.191 205.838 26.195 26.195 148.03-51.53 205.839-96.19z" fill="url(#SVGID_14_)"/><path d="m293.848 106.506c-7.91 10.234-16.857 22.478-26.071 35.843-20.344 29.487-42.034 64.423-56.893 95.303 8.313 11.242 17.842 22.336 28.485 32.979s21.737 20.172 32.979 28.485c30.88-14.859 65.816-36.549 95.303-56.893 13.365-9.214 25.609-18.162 35.843-26.071 2.544-1.963 4.898-4.103 7.05-6.398-11.527-21.204-27.566-42.757-47.554-62.745s-41.541-36.027-62.745-47.554c-2.294 2.153-4.435 4.507-6.397 7.051z" fill="url(#SVGID_15_)"/><path d="m267.776 142.349c-20.344 29.487-42.034 64.423-56.893 95.303-12.736 26.457-20.468 49.937-18.043 64.435 2.395 2.585 4.868 5.141 7.4 7.673s5.087 5.004 7.673 7.4c14.497 2.425 37.978-5.307 64.435-18.043 30.88-14.859 65.816-36.549 95.303-56.893-11.159-19.033-25.888-38.185-43.789-56.086-17.901-17.902-37.053-32.63-56.086-43.789z" fill="url(#SVGID_16_)"/><path d="m267.776 142.349c-20.344 29.487-42.034 64.423-56.893 95.303-12.736 26.457-20.468 49.937-18.043 64.435 2.395 2.585 4.868 5.141 7.4 7.673s5.087 5.004 7.673 7.4c14.497 2.425 37.978-5.307 64.435-18.043 30.88-14.859 65.816-36.549 95.303-56.893-11.159-19.033-25.888-38.185-43.789-56.086-17.901-17.902-37.053-32.63-56.086-43.789z" fill="url(#SVGID_17_)"/></g></g><g><ellipse cx="118.751" cy="197.984" fill="url(#SVGID_18_)" rx="95.855" ry="82.875"/><path d="m118.751 115.11c-8.492 0-16.721.966-24.561 2.758l112.709 112.709c4.955-10.005 7.707-21.02 7.707-32.592 0-45.771-42.916-82.875-95.855-82.875z" fill="url(#SVGID_19_)"/><g><path d="m66.088 65.677c-.012 0-.024 0-.036 0-1.977.002-3.607 1.589-3.609 3.515v.035c0 29.647 24.68 53.681 55.124 53.681h.036c1.977-.002 3.607-1.589 3.609-3.515 0-.012 0-.023 0-.035.001-29.647-24.679-53.681-55.124-53.681z" fill="url(#SVGID_20_)"/><path d="m75.674 66.503v37.593c10.11 11.508 25.122 18.812 41.894 18.812h.036c1.977-.002 3.607-1.589 3.609-3.514 0-.012 0-.023 0-.035 0-26.462-19.667-48.436-45.539-52.856z" fill="url(#SVGID_21_)"/></g><path d="m122.443 129.985c-7.647 0-13.846-6.199-13.846-13.846v-17.588c0-13.786 5.369-26.748 15.119-36.496 5.407-5.408 14.174-5.406 19.581.002 5.407 5.407 5.407 14.174-.002 19.581-4.518 4.517-7.006 10.524-7.006 16.914v17.587c.001 7.646-6.198 13.846-13.846 13.846z" fill="url(#SVGID_22_)"/><path d="m24.73 214.138c8.694 38.036 47.477 66.721 94.021 66.721s85.327-28.685 94.021-66.721z" fill="url(#SVGID_23_)"/></g><path d="m310.844 134.517v106.733h58.216c10.212-7.073 19.738-13.963 28.185-20.332z" fill="url(#SVGID_24_)"/><g><path d="m239.251 143.613c-8.446 0-15.294-6.847-15.294-15.294v-19.426c0-15.228 5.93-29.545 16.699-40.312 5.972-5.973 15.656-5.971 21.628.002 5.972 5.972 5.972 15.656-.002 21.628-4.99 4.989-7.738 11.625-7.738 18.682v19.426c0 8.447-6.846 15.294-15.293 15.294z" fill="url(#SVGID_25_)"/><g><path d="m310.844 279.721c-7.79 7.79-16.517 14.057-25.817 18.816-10.105 5.172-21.927 5.831-32.526 1.767-9.187-3.522-19.353-3.522-28.54 0-10.599 4.064-22.421 3.405-32.526-1.767-9.3-4.759-18.027-11.027-25.817-18.816-40.09-40.112-40.09-105.113 0-145.226 4.755-4.754 9.866-8.951 15.246-12.589 11.496-7.746 26.92-6.094 36.742 3.727 5.692 5.692 13.169 8.527 20.625 8.527 7.455 0 14.933-2.835 20.625-8.527 5.648-5.647 13.17-8.594 20.715-8.594 5.58 0 11.161 1.585 16.027 4.889 5.38 3.639 10.492 7.835 15.246 12.589 40.09 40.09 40.09 105.091 0 145.204z" fill="url(#SVGID_26_)"/><path d="m340.911 207.108c0 40.31-23.225 75.191-57.031 91.983-9.756 4.845-21.164 5.111-31.337 1.219l-.068-.026c-9.172-3.51-19.317-3.51-28.489 0l-.068.026c-10.173 3.893-21.582 3.627-31.337-1.219-33.806-16.792-57.031-51.672-57.031-91.983z" fill="url(#SVGID_27_)"/></g></g><g><path d="m487 313.308c0 108.63-103.87 196.692-232 196.692s-232-88.062-232-196.692 464-108.63 464 0z" fill="url(#SVGID_28_)"/><path d="m23 313.308c0 108.63 103.87 196.692 232 196.692s232-88.062 232-196.692c0-14.671-8.476-27.357-23.117-38.065h-417.766c-14.641 10.708-23.117 23.394-23.117 38.065z" fill="url(#SVGID_29_)"/><path d="m341.718 452.39c35.578-57.062 44.718-140.456 27.437-211.062-69.957-12.653-158.353-12.653-228.31 0-17.281 70.606-8.141 154 27.437 211.062 47.893 76.813 125.543 76.813 173.436 0z" fill="url(#SVGID_30_)"/><path d="m487 313.308c-.001-108.629-463.999-108.629-464 0v.001c0 26.609 22.65 53.218 67.951 73.521 90.602 40.604 237.496 40.604 328.097 0 45.301-20.303 67.952-46.912 67.952-73.522z" fill="url(#SVGID_31_)"/></g><g><path d="m487 313.31c0 108.63-103.87 196.69-232 196.69-4.42 0-8.8-.1-13.16-.32l-214.28-214.29c48.07-90.34 459.44-84.36 459.44 17.92z" fill="url(#SVGID_32_)"/><path d="m486.136 295.515c13.18 0 23.864-10.684 23.864-23.864v-17.576c0-13.18-10.684-23.864-23.864-23.864h-462.272c-13.18.001-23.864 10.686-23.864 23.865v17.575c0 13.18 10.684 23.864 23.864 23.864z" fill="url(#SVGID_33_)"/><path d="m0 254.076v17.575c0 13.18 10.684 23.864 23.864 23.864h462.272c13.18 0 23.864-10.684 23.864-23.864v-17.576c0-1.21-.092-2.399-.266-3.561h-509.468c-.174 1.163-.266 2.352-.266 3.562z" fill="url(#SVGID_34_)"/></g></g></svg>