<?xml version="1.0" encoding="iso-8859-1"?>
<!-- Generator: Adobe Illustrator 19.0.0, SVG Export Plug-In . SVG Version: 6.00 Build 0)  -->
<svg version="1.1" id="Capa_1" xmlns="http://www.w3.org/2000/svg" xmlns:xlink="http://www.w3.org/1999/xlink" x="0px" y="0px"
	 viewBox="0 0 490 490" style="enable-background:new 0 0 490 490;" xml:space="preserve">
<g>
	<g>
		<g>
			<path d="M267.625,193.2h132.6c7.4,0.5,18-5.9,16.7-19c-5.1-37.3-19.8-72.7-42.4-102.2c-3.1-3.9-13.5-11.4-25.3-1.2l-93.7,93.3
				C242.425,177.9,248.625,193.2,267.625,193.2z"/>
			<path d="M212.825,267.4L212.825,267.4V400c0,9.8,8.7,18.1,19,17.1c37.3-5.1,72.7-19.8,102.2-42.4c8.5-6.6,8-18.3,1.2-25.3
				l-93.7-94.1C226.925,242.6,212.825,251.9,212.825,267.4z"/>
			<path d="M374.925,334.3c22.9-29.5,37.3-64.9,42.4-102.2c1.2-14.9-11.7-19-16.7-19h-133c-19,0-25.3,18.4-12.1,28.8l0,0l94.1,94.1
				C358.925,343.6,369.825,341.2,374.925,334.3z"/>
			<path d="M71.725,374.4c29.5,22.9,64.9,37.3,102.2,42.4c10.6,1.2,18.6-6.4,19-16.7l0,0V267.4c0.1-18.7-16-22.5-28.8-12.1
				l-93.7,94.1C67.125,353,60.625,364.2,71.725,374.4z"/>
			<path d="M203.125,242.6c6.6-7.4,18.6-12.4,28-11.7c-0.1-16.3,7.8-24.5,11.3-28c-3.5-3.5-11.6-13.4-11.3-28l-56,56
				C185.025,230.4,196.525,235.2,203.125,242.6z"/>
			<path d="M406.025,0l-45.9,45.5c9.6-0.9,22.9,5.1,29.9,14c24.9,32.3,40.8,71.1,46.3,111.6c1.6,10.5-3.9,26.6-11.3,31.9
				c10.1,10.1,12.8,21.4,11.3,31.9c-5.4,40.4-21.4,79.3-46.3,111.6c-7,8.9-16.9,14.1-29.9,14c0.4,13.2-5.8,23.7-14,30.3
				c-32.3,24.9-71.1,40.8-111.6,46.3c-14.5,1.8-25.3-4.3-31.9-11.3c-0.4,0.4-11.1,14.1-31.5,11.3c-40.4-5.4-79.3-21.4-111.6-46.3
				c-8.2-6.2-14.3-16.3-14-30.3L0.025,406c112,112,293.9,112,405.9,0S518.025,111.9,406.025,0z"/>
		</g>
	</g>
</g>
<g>
</g>
<g>
</g>
<g>
</g>
<g>
</g>
<g>
</g>
<g>
</g>
<g>
</g>
<g>
</g>
<g>
</g>
<g>
</g>
<g>
</g>
<g>
</g>
<g>
</g>
<g>
</g>
<g>
</g>
</svg>
