<svg id="Solid" height="512" viewBox="0 0 64 64" width="512" xmlns="http://www.w3.org/2000/svg"><path d="m49.32 19.81c-8.4776-6.5427-34.8771-11.346-41.14-.01-2.66 5.33.09 8.13.42 8.43 3.498 3.2665 6.4034 3.6906 10.07 3.6a18.8409 18.8409 0 0 1 11.88 3.84c1.93 1.54 4.4 3.94 4.41 3.95l.09.09c.06.05 5.47 5.55 11.34 5.55 2.74 0 5.16-1.2 7.41-3.67 6.7431-6.9783 1.58-17.1725-4.48-21.78zm-4.32 18.19c-6.6086-.206-6.6071-9.795 0-10 6.6086.2059 6.6071 9.795 0 10zm3-5a3 3 0 0 1 -6 0 3 3 0 0 1 6 0zm13.0051.9508c.1956-6.9985-4.7972-13.853-9.1932-17.2691-13.4195-9.8505-48.0926-13.1494-48.7719 7.6883-.0248-.0166-.0269 9.4759-.0354 9.4759a5.0367 5.0367 0 0 0 2.3179 4.2354 21.6 21.6 0 0 0 12.4126 3.4921c2.5123-.1239 5.03.3645 6.5737 1.6593 1.1577.9218 2.8848 2.5361 3.6157 3.2392 1.3941 1.4238 8.8335 8.5263 18.4492 8.5263 9.5069 0 14.92-7.1067 14.6372-20.0034-.0002.0001-.0066-.9968-.0058-1.044zm-54.6106-15.0475c6.9733-12.7789 34.6089-7.9322 44.1724-.6576 4.0661 3.1784 8.6859 9.4354 8.4353 15.8638a13.4476 13.4476 0 0 1 -3.7253 8.8221c-7.76 8.9642-18.31 1.6539-21.6895-1.8615-12.0818-12.7716-16.6423-2.5474-26.36-11.3756-.4344-.4074-4.1454-4.1662-.8329-10.7912z"/></svg>