<svg id="Layer_1" enable-background="new 0 0 68 68" height="512" viewBox="0 0 68 68" width="512" xmlns="http://www.w3.org/2000/svg"><g><g><path d="m59.369278 20.714344v42.7726288c0 1.4324684-1.1612473 2.5937233-2.5937195 2.5937233h-27.9142323v-45.3663521z" fill="#5cbeff"/></g><g><path d="m28.8613262 20.714344v45.3663521h-17.6368294c-1.4324732 0-2.5937223-1.1612549-2.5937223-2.5937233v-42.7726288z" fill="#079cff"/></g><g><path d="m59.369278 19.2831287v29.7106419c-23.119278 3.3838692-30.5079518-9.2899437-30.5079518-9.2899437v-20.4206982z" fill="#e5e8ef"/></g><g><path d="m28.8613262 19.2831287v20.4206982c-4.3177853 7.2066727-11.2827854 10.0344963-20.2305527 9.6319962v-30.0526944z" fill="#cdd4df"/></g><g><path d="m59.3721504 19.2829895h-30.51157l-10.0958404-11.7858868h30.5040245z" fill="#5cbeff"/></g><g><path d="m28.8606358 19.2831287h-20.2327853l10.097848-11.786026h.0371799z" fill="#079cff"/></g><g><path d="m49.2669907 4.1460614v3.3510413h-30.5041123l-.0149078-3.3437691c0-1.2286427.9903851-2.2340279 2.2265739-2.2340279h26.0733261c1.2211914.0000002 2.2191201.998113 2.2191201 2.2267557z" fill="#079cff"/></g><g><g><path d="m25.3908825 59.0559807v3.0869865c0 .6343384-.5129795 1.1470871-1.147089 1.1470871h-10.9954863c-.6343374 0-1.147089-.5127487-1.147089-1.1470871v-3.0869865c0-.6343384.5127516-1.1470909 1.147089-1.1470909h10.9954863c.6341095 0 1.147089.5127525 1.147089 1.1470909z" fill="#fff"/></g><g><g><path d="m15.8312807 59.5152016v2.168541c0 .305912-.2502518.5561638-.5652151.5561638-.305913 0-.5561638-.2502518-.5561638-.5561638v-2.168541c0-.305912.2502508-.5561638.5561638-.5561638.3149633 0 .5652151.2502518.5652151.5561638z" fill="#435e88"/></g><g><path d="m18.1482525 59.5152016v2.168541c0 .305912-.2502499.5561638-.5652142.5561638-.305912 0-.5561638-.2502518-.5561638-.5561638v-2.168541c0-.305912.2502518-.5561638.5561638-.5561638.3149643 0 .5652142.2502518.5652142.5561638z" fill="#435e88"/></g><g><path d="m20.4652252 59.5152016v2.168541c0 .305912-.2502499.5561638-.5652142.5561638-.305912 0-.5561638-.2502518-.5561638-.5561638v-2.168541c0-.305912.2502518-.5561638.5561638-.5561638.3149644 0 .5652142.2502518.5652142.5561638z" fill="#435e88"/></g><g><path d="m22.7821999 59.5152016v2.168541c0 .305912-.2502518.5561638-.5652161.5561638-.305912 0-.5561638-.2502518-.5561638-.5561638v-2.168541c0-.305912.2502518-.5561638.5561638-.5561638.3149643 0 .5652161.2502518.5652161.5561638z" fill="#435e88"/></g></g></g><g><g><path d="m41.7369156 28.8600388h-.4180717c-.2025909 0-.3892021.0608292-.5557098.1819706-.1613503.1175346-.2830086.2670307-.3639412.4490013l-2.7290573 6.8045979-2.7311172-6.8097534c-.0788727-.1773319-.201046-.3268261-.3618813-.4438457-.1665077-.1211414-.3531189-.1819706-.5557098-.1819706h-.4180679c-.2711563 0-.5051918.0989761-.6959267.2948666-.1897049.1938267-.2855873.428896-.2855873.6990166v7.5634136c0 .2036247.0706253.377861.2108383.5175629.2799187.2793999.7485085.2814636 1.0392494.0020638.1453705-.1402168.2190857-.3144569.2190857-.5196266v-6.3818874l2.6223488 6.4813786c.0793877.1891899.2082634.3433266.3819847.4572487.3464165.2278519.8031502.2278519 1.1495667.0005188.1737213-.1144409.302597-.2685776.3830147-.4598274l2.6213188-6.4793186v6.3818874c0 .2041397.0737152.3794098.2196007.5196266.1443405.139183.3196106.2092934.5216866.2092934.2025909 0 .3768311-.0711403.5170479-.2113571s.2113533-.3144531.2113533-.5175629v-7.5634136c0-.2690907-.0958824-.504158-.2855873-.6990166-.1912501-.1958908-.4252856-.2948669-.6964381-.2948669z" fill="#435e88"/></g><g><path d="m45.2840691 28.6445599h-.0762939c-.2206345 0-.4113693.0793877-.5675659.2360992-.1572266.1567116-.2366142.3479614-.2366142.5680809v.050518c0 .2206345.0793877.4113693.2360992.5680809s.3479614.2366142.5680809.2366142h.0762939c.2201195 0 .4113693-.0799026.5675659-.2366142.1572266-.1567116.2366142-.3474464.2366142-.5680809v-.050518c0-.2201195-.0793877-.4113693-.2360992-.5680809s-.3474465-.2360992-.5680809-.2360992z" fill="#435e88"/></g><g><path d="m44.7139282 31.4612503c-.1386719.1438255-.2087784.3196106-.2087784.5216866v5.4343987c0 .2036247.0706215.377861.2108383.5175629.1402168.1402168.3144569.2113571.5170479.2113571.202076 0 .377346-.0701103.5216866-.2092934.1458855-.1402168.2196007-.3154869.2196007-.5196266v-5.4343987c0-.2113552-.0711365-.3897171-.2113533-.5299339-.2742462-.2752763-.7634545-.2886792-1.0490418.0082473z" fill="#435e88"/></g><g><path d="m47.8687859 28.6739426c-.1386681.1438255-.2087784.3190956-.2087784.5211716v8.2222214c0 .2036247.0706253.377861.2108421.5175629.140213.1402168.3144531.2113571.5170441.2113571.202076 0 .377346-.0701103.5216866-.2092934.1458855-.1402168.2196045-.3154869.2196045-.5196266v-8.2222214c0-.2113552-.0711403-.389719-.2113571-.5299339-.2757913-.2752782-.7639695-.2881642-1.0490418.0087623z" fill="#435e88"/></g><g><path d="m56.457531 36.9925652-2.2053108-2.9239159 1.7222862-1.5434074c.1737251-.1742363.2618752-.3567238.2618752-.542305 0-.188673-.0567055-.3546638-.1680527-.4928169-.1201134-.1484642-.3046608-.2232113-.5479774-.2232113-.164444 0-.327343.0685596-.4876633.2067146l-2.7491608 2.5414143v-4.8199234c0-.2031078-.0732002-.3788929-.2175407-.5232334-.2876511-.2886791-.7624245-.2891941-1.0428581.0020618-.1386681.1438255-.2087746.3190956-.2087746.5211716v8.2222214c0 .2036247.0706215.377861.2108383.5175629.2799149.2799187.7495346.2804337 1.0387306.0020638.1458893-.1402168.2196045-.3154869.2196045-.5196266v-1.5640259l.920166-.8356247 2.07798 2.8264847c.073719.0948524.163929.1690865.2690926.2216644.1056786.0536156.214962.0804214.3242493.0804214.2092934 0 .3861084-.0654716.5252953-.1938286.1433067-.1324844.215992-.3082695.215992-.5222015-.0000001-.153103-.0536119-.3010522-.1587716-.4376603z" fill="#435e88"/></g></g></g></svg>