<svg id="Layer_1" height="512" viewBox="0 0 512 512" width="512" xmlns="http://www.w3.org/2000/svg" data-name="Layer 1"><path d="m89.561 346.4c1.32 9.606-13.241 11.834-14.7 2.152-3.649-20.9-16.9-29.08-44.976-36-9.427-2.152-6.235-16.624 3.265-14.472 22.431 4.029 53.429 18.756 56.411 48.32z" fill="#663014"/><path d="m126.893 493.5c-62.228.028-99.119-35.546-96.039-96.93l.146-.07 118.379-38.52.074.075c41.254 49.057 39.888 101.012-22.56 135.445z" fill="#fdb62f"/><path d="m277.508 294.333c-35.232 52.584-110.117 35.76-142.823-10.873-22.16-27.643-24.014-66.414-4.534-95.074 10.694-15.736 31.436-17.973 45.821-7.631 7.335 4.415 13.094 17 17.41 24.335l8.039 14.146c7.6 15.053 24.273 17.436 39.115 19.756l14.668 2.7c23.976 4.38 35.911 32.62 22.304 52.641z" fill="#77a226"/><path d="m274.811 297.933c-36.071 48.167-108.137 31.024-140.125-14.472-24.6-30-25.975-83.205 7.644-105.688-16.625 28.129-13.953 64.571 7.2 90.844 27.98 39.856 86.836 57.965 125.281 29.316z" fill="#658920"/><path d="m236.983 246.373c-27.451 35.845-76.348-11.746-43.6-41.283 6.97 13.133 15.145 28.913 31.476 31l15.678 2.907a28 28 0 0 1 -3.554 7.376z" fill="#5e801e"/><path d="m240.522 239a26.9 26.9 0 0 1 -3.563 7.348c-15.437 20.187-37.7 13.952-48.242-.669 11.7 9.216 30.911 8.833 41.934-8.535z" fill="#4c6718"/><path d="m126.076 151.351a52.978 52.978 0 0 1 -4.675 3.34 61.551 61.551 0 0 1 -13.063 6.754.229.229 0 0 1 -.148.074c-78.91 26.508-112.426-80.194-73.106-132.109a19.344 19.344 0 0 1 3.116-3.41v-.074a27.341 27.341 0 0 1 6.011-4.454c29.937-11.152 76.56 13.269 95.52 47.8 17.069 32.947 9.056 64.044-13.655 82.079z" fill="#8c421c"/><path d="m138.174 138.586c-9.142 12.8-21.349 20.529-36 24.715-75.496 19.483-106.256-86.034-65.531-135.821a36.6 36.6 0 0 1 4.23-3.859 7.957 7.957 0 0 1 1.633-1.113c.074-.075.223-.149.3-.223a3.017 3.017 0 0 0 .668-.371 3.947 3.947 0 0 1 .742-.446v.149c-4.261 18.192-17.49 113.655 28.873 127.952 15.386 6.27 46.711 2.394 65.085-10.983z" fill="#733617"/><path d="m61.209 70.6a7.436 7.436 0 0 0 13.211-6.827c-3.228-6.208-8.677-16.7-13.752-26.476 13.31 7.281 26.266 17.184 34.237 30.558a7.447 7.447 0 1 0 12.914-7.422c-12.692-21.894-37.407-35.625-51.286-41.859-8.812.388-16.36 3.631-21.449 10.836-2.449 14.844-4.972 43.566 6.606 66.649a7.4 7.4 0 1 0 13.21-6.68c-6.676-13.938-7.814-29.5-6.729-44.039z" fill="#663014"/><path d="m120.139 100.512a7.5 7.5 0 0 0 -4.676 9.426c3.09 9.816 1.548 20.78-1.416 30.558-4.2-8.118-8.782-16.961-11.424-22.1a7.419 7.419 0 0 0 -13.211 6.754c2.641 5.1 7.21 13.948 11.407 22.082-9.826-3.279-19.638-8.418-25.657-16.515a7.456 7.456 0 0 0 -10.39-1.559c-13.953 15.442 30.994 32.836 37.406 34.142a63.353 63.353 0 0 0 23.9-11.95c3.344-5.984 14.194-54.45-5.939-50.838z" fill="#663014"/><path d="m39.76 91.754c-9.351-22.191-6.977-48.391-4.676-62.344 2-2.569 6-6.9 9.129-7.793-.074 1.856-7.644 36.813-4.453 70.137z" fill="#4c240f"/><path d="m128.526 144.152a43.485 43.485 0 0 1 -2.375 7.051c0 .074-.075.074-.075.148-.965.743-1.929 1.485-2.894 2.153a51.506 51.506 0 0 1 -4.824 3.117 6.8 6.8 0 0 1 -.965.594 71.743 71.743 0 0 1 -15.215 6.086c-4.527-.891-18.852-6.531-29.093-13.731 13.215 4.973 36.215 3.93 55.441-5.418z" fill="#4c240f"/><path d="m450.783 325.914c-7.347 27.09 13.137 44.754-5.343 94.258-21.635 56.769-64.85 82.391-112.44 70.359-54.079-15.405-97.181-62.914-73.328-126.468 22.563-60.192 61.156-68.133 69.543-86.02 8.387-17.961 1.484-34.883 20.188-74.367 17-36.071 57.742-56.629 89.137-50.1 40.4 9.811 64.316 58.021 51.36 103.089-13.214 42.678-31.769 42.159-39.117 69.249z" fill="#e8a864"/><path d="m440.69 154.172c-1.41.3-2.895.668-4.305 1.113-23.156 6.531-45.719 23.9-57.3 48.391-18.7 39.484-11.8 56.406-20.187 74.367-8.387 17.887-46.981 25.828-69.543 86.019-20.336 54.254 8.09 96.707 50.394 117.711h.075a144.661 144.661 0 0 0 22.859 8.758 72.345 72.345 0 0 0 7.793 1.559 82.967 82.967 0 0 1 -21.076 1.11 8.19 8.19 0 0 1 -1.336-.148h-.149a88.264 88.264 0 0 1 -14.915-2.521 130.309 130.309 0 0 1 -37.554-17.367c-34.174-23-53.516-61.4-35.774-109.1 22.563-60.192 61.156-68.133 69.543-86.02 8.387-17.961 1.484-34.883 20.188-74.367 17.47-36.677 59.063-57.71 91.287-49.505z" fill="#e49949"/><g fill="#e08a2e"><path d="m333 490.531a6.726 6.726 0 0 1 1.93-3.636c3.34-3.489 6.68-6.977 9.8-10.614a7.478 7.478 0 0 1 10.465-.668c6.78 6.278-1.485 12.918-5.864 17.664z"/><path d="m388.885 424.848a7.494 7.494 0 0 0 -10.093 2.968 239.461 239.461 0 0 1 -15.587 25.16 7.425 7.425 0 1 0 12.1 8.61 264.048 264.048 0 0 0 16.551-26.645 7.514 7.514 0 0 0 -2.971-10.093zm20.707-57.223a7.436 7.436 0 0 0 -9.054 5.27 239.635 239.635 0 0 1 -9.2 28.128 7.429 7.429 0 1 0 13.805 5.492 254.733 254.733 0 0 0 9.723-29.835 7.437 7.437 0 0 0 -5.274-9.055zm6.754-60.488a7.458 7.458 0 0 0 -7.645 7.2 258.314 258.314 0 0 1 -2.375 29.539 7.347 7.347 0 0 0 6.309 8.386 7.433 7.433 0 0 0 8.387-6.308 271.368 271.368 0 0 0 2.523-31.246 7.335 7.335 0 0 0 -7.199-7.571zm29.168-53.661a7.451 7.451 0 0 0 -9.649 4.231 214.6 214.6 0 0 1 -12.616 26.57 7.41 7.41 0 1 0 12.913 7.274 234.948 234.948 0 0 0 13.583-28.426 7.486 7.486 0 0 0 -4.231-9.649zm8.906-59.671a7.7 7.7 0 0 0 -7.42 7.718 146.491 146.491 0 0 1 -2.82 28.2 7.416 7.416 0 1 0 14.547 2.9 159.927 159.927 0 0 0 3.117-31.692 7.1 7.1 0 0 0 -7.424-7.126z"/><path d="m452.713 177.773c-5.566 1.224-9.133-3.709-9.5-8.758-.89.669-1.633 1.411-2.449 2.079a7.5 7.5 0 0 1 -10.539-.668c-5.841-7.183 3.32-12.7 8.313-16.848a51.236 51.236 0 0 1 17.812 7.122c1.739 5.933 4.724 15.074-3.637 17.073z"/><path d="m306.947 392.191a7.437 7.437 0 0 0 -9.054 5.27 251.936 251.936 0 0 0 -6.086 30.5 7.385 7.385 0 0 0 6.308 8.386 7.478 7.478 0 0 0 8.387-6.382 235.758 235.758 0 0 1 5.715-28.649 7.422 7.422 0 0 0 -5.27-9.125zm25.086-54.848a7.411 7.411 0 0 0 -10.168 2.673 227.037 227.037 0 0 0 -13.878 27.906 7.4 7.4 0 1 0 13.656 5.714 214.427 214.427 0 0 1 13.063-26.125 7.428 7.428 0 0 0 -2.673-10.168zm33.028-49.429a7.441 7.441 0 0 0 -8.832 5.715l-.223 1.113c-5.012 7.324-25.206 21.645-15.29 29.91a7.4 7.4 0 0 0 10.392-1.336c5.195-6.754 10.984-13.433 17.07-19.89 3.862-4.709 4.202-13.837-3.117-15.512zm20.339-56.851a7.444 7.444 0 0 0 -9.871 3.636 264.372 264.372 0 0 0 -11.281 29.02c-2.946 9.2 11.112 13.879 14.1 4.527a254.8 254.8 0 0 1 10.687-27.313 7.49 7.49 0 0 0 -3.635-9.87zm34.066-49.727a7.409 7.409 0 0 0 -10.465.816 222.5 222.5 0 0 0 -18.628 25.161 7.5 7.5 0 0 0 2.3 10.242 7.343 7.343 0 0 0 10.243-2.3 207.982 207.982 0 0 1 17.364-23.455 7.553 7.553 0 0 0 -.817-10.464z"/><path d="m304.35 473.906a7.131 7.131 0 0 1 -1.114 4.156 120.6 120.6 0 0 1 -13.8-9.2c-.021-6.511-1.781-16.652 7.57-17 10.981 1.019 6.148 14.525 7.344 22.044z"/></g><path d="m354.448 487.859c-1.633 1.93-3.563 3.711-5.047 5.344l-.075.074-1.261-.222h-.149l-14.916-2.524a6.732 6.732 0 0 1 1.93-3.637c1.633-1.706 3.266-3.414 4.824-5.121h.075a126.242 126.242 0 0 0 14.619 6.086z" fill="#d07b1f"/><path d="m440.69 154.172c-1.41.3-2.895.668-4.305 1.113.742-.594 1.484-1.188 2.153-1.707a18.072 18.072 0 0 1 2.152.594z" fill="#d07b1f"/><path d="m304.35 473.906a7.131 7.131 0 0 1 -1.114 4.156 120.6 120.6 0 0 1 -13.8-9.2c-.021-6.511-1.781-16.652 7.57-17 10.981 1.019 6.148 14.525 7.344 22.044z" fill="#d07b1f"/><path d="m351.988 30.056c41.478 46.4 13.539 117.2-40.118 139.1-30.961 14.94-68.3 6.862-91.551-19.821-12.768-14.65-10.579-35.827 2.275-47.47 6.257-6.717 44.542-16.033 41.974-15.435 20.223-4.7 32.909-48.423 32.609-47.68 9.166-22.702 38.566-27.333 54.811-8.694z" fill="#e8a864"/><path d="m350.44 140.145a96.737 96.737 0 0 1 -38.594 29.019c-30.949 14.918-68.281 6.828-91.512-19.816-12.765-14.7-10.613-35.848 2.227-47.5 1.262-1.336 3.859-2.821 7.2-4.3a34.23 34.23 0 0 0 5.418 36.961c23.231 26.644 60.563 34.734 91.512 19.816a92.432 92.432 0 0 0 23.749-14.18z" fill="#e49949"/><path d="m343.757 112.843a7.439 7.439 0 0 1 -7.262-8.977c3.623-16.931 1.253-30.92-7.256-42.755-5.623-7.887 6.351-16.535 12.061-8.661 10.93 15.216 14.2 33.561 9.7 54.525a7.421 7.421 0 0 1 -7.243 5.868z" fill="#ecbe8e"/><path d="m117.492 476.335c-34.544-5.964-58.22-23.4-67.5-56.215-2-6.929 9-10.807 11.929-4.17 8.991 18 23.858 26.008 41.623 32.324a14.849 14.849 0 0 0 17.577-6.233c10.33-16.881 18.2-34.2 14.006-55.713a51.051 51.051 0 0 0 23.453-15.957c-2.746-4.082-5.789-8.164-9.129-12.32-7.125 10.019-17.589 16.55-34.66 16.476 11.875 19.891 6.606 39.93-6.308 59.9-21-6.606-36.739-18.926-38.742-46.313-7.264 7.264-15.152 10.458-23.547 10.716-.2-2.321-.405-4.643-.5-7.079l-14.651 4.762-.043-.013-.148.074c-1.761 64.119 31.924 95.051 96.039 96.93 15.586-9.129 27.535-18.926 36-29.465a56.121 56.121 0 0 1 -45.399 12.296z" fill="#fdab11"/><path d="m89.561 346.4a7.5 7.5 0 0 1 -7.348 8.535c-8.5.055-7.193-10.45-9.871-15.808a103.584 103.584 0 0 1 14.176-4.305 48.988 48.988 0 0 1 3.043 11.578z" fill="#4c240f"/><path d="m157.471 342.019c-7.791 21.224-19.807 32.608-42.676 32.508 11.875 19.891 6.606 39.93-6.308 59.9-21-6.606-36.739-18.926-38.742-46.313-14.82 14.82-32.246 12.693-51.137 3.414 37.005-43.607 85.74-55.728 138.863-49.509z" fill="#8c421c"/><path d="m116.038 420.6a87.439 87.439 0 0 1 -7.551 13.823c-21-6.606-36.739-18.926-38.742-46.313-14.845 14.843-32.212 12.69-51.137 3.413a151.386 151.386 0 0 1 12.32-12.617c17.071 7.274 32.656 7.942 46.238-5.64 2.004 27.015 18.239 40.653 38.872 47.334z" fill="#733617"/></svg>