<svg id="Layer_1" data-name="Layer 1" xmlns="http://www.w3.org/2000/svg" viewBox="0 0 482.92 805.05"><circle cx="427.98" cy="812.9" r="61.17" transform="translate(-380.78 51.05) rotate(-13.28)"/><path d="M677.65,234.73a233,233,0,0,0-63-95.48A274.41,274.41,0,0,0,514.29,81.48c-18.77-6.06-38.21-9.48-57.82-11.41a226.92,226.92,0,0,0-51.7,1c-20.88,2.74-41.18,6.85-60.85,14.55-19.33,7.56-37.92,16.57-54.64,29a239.44,239.44,0,0,0-26.38,22,222.09,222.09,0,0,0-22.41,26.66c-11.88,16.17-20.55,35-26.52,54.1a162.76,162.76,0,0,0-5.77,25.73c-1.64,11.5-3,22.92-2.7,34.56a199.37,199.37,0,0,0,4,34.26,134.29,134.29,0,0,0,7.54,24.79c4.29,10.39,8.77,20.41,15,29.78,5,7.51,11.77,13.44,20.67,15.89,8.27,2.28,19.29,1.25,26.64-3.49s13.88-11.85,15.89-20.66,1.67-18.91-3.49-26.64a128.31,128.31,0,0,1-9.48-16.88,138,138,0,0,1-6.94-25.73,154.28,154.28,0,0,1,.08-31.21,162.92,162.92,0,0,1,8.87-32.45,157.17,157.17,0,0,1,15.47-26.59A176.58,176.58,0,0,1,324.6,174a200.83,200.83,0,0,1,37-21.44,226,226,0,0,1,47.79-12.93,226.55,226.55,0,0,1,50.54,0,239,239,0,0,1,50.78,13.89,238.12,238.12,0,0,1,45.13,26.24A217,217,0,0,1,588.17,212a194.53,194.53,0,0,1,20.44,34.86,173.36,173.36,0,0,1,9.57,34.94,187.86,187.86,0,0,1-.08,40.16,198.28,198.28,0,0,1-11.35,41.49A188.36,188.36,0,0,1,587,397.23a168.08,168.08,0,0,1-23.44,23.52,152,152,0,0,1-25.52,14.95c-18.89,7.28-38.94,11-58.7,15.12-24,5-47.89,11.29-69.49,23.27-21.17,11.75-39.4,29.78-50.61,51.33-11,21.11-17,44.92-16.51,68.79A134.12,134.12,0,0,0,349,633c4.07,12.26,9.58,24.43,17.47,34.73a38.75,38.75,0,0,0,20.66,15.89c8.28,2.28,19.3,1.25,26.64-3.49s13.88-11.84,15.89-20.66c.41-3.06.82-6.13,1.24-9.19a34.49,34.49,0,0,0-4.72-17.45,89.21,89.21,0,0,1-9.53-15.51,99.92,99.92,0,0,1-4.36-16.14,108.22,108.22,0,0,1,0-19,108.8,108.8,0,0,1,5-18.52,100.24,100.24,0,0,1,8.18-14.08,89.46,89.46,0,0,1,9.67-9.7A116.23,116.23,0,0,1,453,529.67c33.31-12.81,69.82-14.39,103.18-27.17a206.15,206.15,0,0,0,28-12.78c9-5.09,17.11-11.22,25.23-17.56,14.11-11,25.54-24.24,36.27-38.5A189,189,0,0,0,668.34,394c7.16-16.8,13.1-33.71,16.15-51.77,3-17.88,4.75-36,3.45-54.08S683.65,251.87,677.65,234.73Z" transform="translate(-205.46 -69.02)"/></svg>