<svg id="Layer_1" data-name="Layer 1" xmlns="http://www.w3.org/2000/svg" viewBox="0 0 480.99 601.21"><defs><style>.cls-1{fill:#383838;}</style></defs><path class="cls-1" d="M542.09,181.06s26.29,59.16,0,152.84-57.52,210.36-75.6,263S441.84,708.6,415.54,728.32s-65.74,14.8-82.17,0S300.5,679,300.5,621.5,312,465.37,335,388.13,412.25,202.42,456.63,171.2,537.16,163,542.09,181.06Z" transform="translate(-300.5 -148)"/><path class="cls-1" d="M714.65,153.12s-72.31,31.22-101.89,118.33-67.39,228.44-83.82,284.31-14.79,159.42,27.94,182.43,75.6,8.21,100.25-27.94,36.15-113.4,51-189S759,363.48,772.17,294.45s13.15-118.32-4.93-136.4S719.58,151.47,714.65,153.12Z" transform="translate(-300.5 -148)"/></svg>