<svg id="Layer_1" height="512" viewBox="0 0 512 512" width="512" xmlns="http://www.w3.org/2000/svg"><g><g><g><path d="m384 128c-8.837 0-16-7.163-16-16 0-14.592 5.683-28.31 16-38.628l9.373-9.372c10.317-10.318 24.036-16 38.627-16 8.837 0 16 7.163 16 16s-7.163 16-16 16c-6.044 0-11.726 2.354-16 6.628l-9.373 9.372c-4.273 4.273-6.627 9.956-6.627 16 0 8.837-7.163 16-16 16z" fill="#4b8c41"/></g><g><path d="m320 128c-8.837 0-16-7.163-16-16 0-6.044-2.354-11.726-6.627-16l-9.373-9.372c-4.274-4.274-9.956-6.628-16-6.628-8.837 0-16-7.163-16-16s7.163-16 16-16c14.591 0 28.31 5.682 38.627 16l9.373 9.372c10.317 10.318 16 24.036 16 38.628 0 8.837-7.163 16-16 16z" fill="#69a041"/></g><g><path d="m360 128c-8.837 0-16-7.163-16-16v-21.49c0-21.368 8.321-41.458 23.432-56.568l13.255-13.255c6.248-6.248 16.379-6.248 22.627 0 6.249 6.248 6.249 16.379 0 22.627l-13.255 13.255c-9.066 9.066-14.059 21.12-14.059 33.941v21.49c0 8.837-7.163 16-16 16z" fill="#69a041"/></g><g><path d="m344 128c-8.837 0-16-7.163-16-16v-21.49c0-12.821-4.993-24.875-14.059-33.941l-13.255-13.255c-6.249-6.248-6.249-16.379 0-22.627 6.248-6.248 16.379-6.248 22.627 0l13.255 13.255c15.111 15.11 23.432 35.199 23.432 56.568v21.49c0 8.837-7.163 16-16 16z" fill="#91b945"/></g><g><path d="m272 144v213.726c0 42.435 16.857 83.131 46.863 113.137l19.48 19.48c3.622 3.622 8.535 5.657 13.657 5.657 5.122 0 10.035-2.035 13.657-5.657l19.48-19.48c30.006-30.006 46.863-70.703 46.863-113.137v-213.726c0-17.673-14.327-32-32-32h-96c-17.673 0-32 14.327-32 32z" fill="#faa037"/></g><g><path d="m352 496v-336c0-8.837 7.163-16 16-16h64v213.726c0 42.435-16.857 83.131-46.863 113.137l-19.48 19.48c-3.622 3.622-8.535 5.657-13.657 5.657z" fill="#f57828"/></g><g><path d="m312 176h-40v-16h40c4.418 0 8 3.582 8 8 0 4.418-3.582 8-8 8z" fill="#f57828"/></g><g><path d="m312 264h-40v-16h40c4.418 0 8 3.582 8 8 0 4.418-3.582 8-8 8z" fill="#f57828"/></g><g><path d="m312 352h-40v-16h40c4.418 0 8 3.582 8 8 0 4.418-3.582 8-8 8z" fill="#f57828"/></g><g><path d="m392 224h40v-16h-40c-4.418 0-8 3.582-8 8 0 4.418 3.582 8 8 8z" fill="#d65a0a"/></g><g><path d="m392 304h40v-16h-40c-4.418 0-8 3.582-8 8 0 4.418 3.582 8 8 8z" fill="#d65a0a"/></g></g><g><g><path d="m192 418.667h-64v61.333c0 8.837 7.163 16 16 16h32c8.837 0 16-7.163 16-16z" fill="#afd763"/></g><g><path d="m192 418.667h-32v77.333h16c8.837 0 16-7.163 16-16z" fill="#91b945"/></g><g><path d="m160 454.627-75.313-75.314c-6.249-6.248-6.249-16.379 0-22.627 6.248-6.248 16.379-6.248 22.627 0l52.686 52.687 52.687-52.686c6.248-6.248 16.379-6.248 22.627 0 6.249 6.248 6.249 16.379 0 22.627z" fill="#afd763"/></g><g><g><circle cx="192" cy="368" fill="#69a041" r="32"/></g><g><circle cx="224" cy="368" fill="#69a041" r="32"/></g><g><circle cx="208" cy="336" fill="#4b8c41" r="32"/></g></g><g><g><circle cx="96" cy="368" fill="#4b8c41" r="32"/></g><g><circle cx="128" cy="368" fill="#4b8c41" r="32"/></g><g><circle cx="112" cy="336" fill="#69a041" r="32"/></g></g><g><g><circle cx="144" cy="304" fill="#91b945" r="32"/></g><g><circle cx="176" cy="304" fill="#91b945" r="32"/></g><g><circle cx="160" cy="336" fill="#69a041" r="32"/></g></g></g><g><g><path d="m160 72c-4.418 0-8-3.582-8-8v-8c0-22.056 17.944-40 40-40 4.418 0 8 3.582 8 8s-3.582 8-8 8c-13.233 0-24 10.766-24 24v8c0 4.418-3.582 8-8 8z" fill="#4b8c41"/></g><g><circle cx="160" cy="160" fill="#e1322d" r="96"/></g><g><path d="m128 160h-64c0-53.019 42.981-96 96-96v64c0 17.673-14.327 32-32 32z" fill="#f04b37"/></g><g><circle cx="112" cy="112" fill="#f5826e" r="16"/></g><path d="m216 56h-112c-4.418 0-8 3.582-8 8s3.582 8 8 8h36.686l-10.343 10.343c-3.124 3.124-3.124 8.19 0 11.314 3.125 3.124 8.189 3.124 11.314 0l18.343-18.343 18.343 18.343c1.562 1.562 3.609 2.343 5.657 2.343s4.095-.781 5.657-2.343c3.124-3.124 3.124-8.19 0-11.314l-10.343-10.343h36.686c4.418 0 8-3.582 8-8s-3.582-8-8-8z" fill="#69a041"/></g></g></svg>