<svg enable-background="new 0 0 512 512" height="512" viewBox="0 0 512 512" width="512" xmlns="http://www.w3.org/2000/svg"><g id="_x33_3_Seed_Bag"><g><path d="m447.138 463.576c-7.991-10.54-11.113-23.987-8.077-36.86 28.529-120.972 28.528-220.475-.004-341.449-3.015-12.784-.015-26.178 7.921-36.643 11.735-15.474 19.927-34.584 10.245-44.265-9.944-9.943-29.115-1.315-44.285 10.233-9.967 7.588-22.617 10.732-34.905 8.3-87.381-17.296-178.033-15.802-264.847 4.485-15.039-16.479-45.361-36.065-58.408-23.017-9.884 9.884-1.428 28.88 10.085 44.066 7.991 10.539 11.112 23.985 8.076 36.859-28.529 120.971-28.528 220.475.004 341.448 3.015 12.783.015 26.178-7.921 36.643-11.735 15.473-19.926 34.581-10.244 44.264 9.944 9.943 29.115 1.315 44.284-10.234 9.967-7.588 22.617-10.732 34.905-8.3 80.442 15.924 163.656 15.921 244.096-.007 12.194-2.414 24.788.614 34.684 8.136 15.435 11.73 34.752 20.126 44.475 10.404 9.885-9.883 1.429-28.878-10.084-44.063zm-63.873-93.333c0 17.999-14.642 32.641-32.641 32.641h-189.248c-17.999 0-32.641-14.642-32.641-32.641v-228.486c0-17.999 14.642-32.641 32.641-32.641h189.247c17.999 0 32.641 14.642 32.641 32.641v228.486z"/><path d="m350.625 119.996h-189.25c-12.018 0-21.761 9.742-21.761 21.761v228.487c0 12.018 9.743 21.761 21.761 21.761h189.25c12.018 0 21.761-9.743 21.761-21.761v-228.487c0-12.019-9.743-21.761-21.761-21.761zm-159.798 176.914c-22.74-22.74-16.538-65.772-16.538-65.772s20.292-2.937 40.366 2.557c-2.666 6.909-4.352 14.363-4.352 22.251 0 25.405 17.572 46.785 29.159 58.155-14.525-.435-35.198-3.754-48.635-17.191zm65.176 17.307s-34.821-26.085-34.822-58.253c-.001-32.167 34.817-58.183 34.817-58.183s34.821 26.021 34.822 58.189-34.817 58.247-34.817 58.247zm65.17-17.307c-13.437 13.437-34.11 16.755-48.635 17.19 11.588-11.37 29.16-32.75 29.16-58.155 0-7.888-1.686-15.342-4.352-22.251 20.074-5.494 40.366-2.557 40.366-2.557s6.201 43.033-16.539 65.773z"/></g></g></svg>