<?xml version="1.0"?>
<svg xmlns="http://www.w3.org/2000/svg" viewBox="0 0 512 512" width="512" height="512"><g id="Solar_Technology_Farming" data-name="Solar Technology Farming"><g id="Outline"><path d="M504,496H478.58A48.108,48.108,0,0,0,440,456.812v-27.42c11.8,3.768,23.546,2.97,34.214-2.75,22.3-11.955,36.542-44.692,37.138-46.079a8,8,0,0,0-5.912-11.025c-1.487-.272-36.637-6.518-58.931,5.435A41.6,41.6,0,0,0,432,387.729a41.6,41.6,0,0,0-14.509-12.756c-22.293-11.954-57.446-5.707-58.931-5.435a8,8,0,0,0-5.912,11.025c.6,1.387,14.843,34.124,37.138,46.079,10.616,5.692,22.356,6.537,34.214,2.749v27.158A48.11,48.11,0,0,0,383.939,496H302.58a48.105,48.105,0,0,0-39.075-39.277v-27.5c11.778,3.892,23.729,3.3,34.709-2.586,22.3-11.955,36.542-44.692,37.138-46.079a8,8,0,0,0-5.912-11.025c-1.487-.272-36.638-6.518-58.931,5.435a41.613,41.613,0,0,0-14.88,13.277,41.618,41.618,0,0,0-14.879-13.277c-22.294-11.954-57.445-5.707-58.931-5.435a8,8,0,0,0-5.911,11.025c.6,1.387,14.842,34.124,37.138,46.079,11.036,5.918,22.92,6.417,34.459,2.668v27.325A48.108,48.108,0,0,0,207.939,496H127.321A48.108,48.108,0,0,0,88,456.679V429.147c11.7,3.929,23.768,3.493,34.954-2.5,22.3-11.955,36.542-44.692,37.138-46.079a8,8,0,0,0-5.911-11.025c-1.486-.272-36.636-6.519-58.931,5.435a41.6,41.6,0,0,0-15.257,13.839,41.6,41.6,0,0,0-15.257-13.839c-22.294-11.954-57.446-5.707-58.931-5.435A8,8,0,0,0-.106,380.563c.6,1.387,14.842,34.124,37.137,46.079,11.23,6.022,23.314,6.418,34.969,2.5v27.537A48.108,48.108,0,0,0,32.679,496H8a8,8,0,0,0,0,16H504a8,8,0,0,0,0-16ZM491.7,384.005c-12.251,21.812-28.288,39.051-51.09,28.522-.09-1.188-.243-2.587-.484-4.135C445.278,385.3,468.011,382.237,491.7,384.005Zm-68.3,28.523c-22.851,10.544-38.873-6.775-51.09-28.523,23.648-1.768,46.413,1.279,51.574,24.387C423.638,409.94,423.485,411.34,423.4,412.528ZM315.7,384.005c-12.654,22.528-29,39.37-51.862,28.151-.039-.472-.087-.968-.146-1.5C267.6,385.947,290.748,382.143,315.7,384.005Zm-175.237,0c-12.7,22.444-29.1,39.613-52.22,27.988C91.344,386.319,114.765,382.085,140.458,384.007Zm-120.908,0c25.832-1.931,49.1,2.4,52.2,27.99C48.667,423.594,32.192,406.509,19.55,384.005ZM49.013,496c8.227-31.847,53.728-31.922,61.974,0Zm198.413-83.843c-22.909,11.232-39.214-5.633-51.862-28.152,24.963-1.866,48.1,1.953,52.009,26.655C247.513,411.188,247.466,411.685,247.426,412.157ZM224.272,496c8.228-31.847,53.729-31.922,61.975,0Zm176,0c8.228-31.847,53.728-31.922,61.975,0Z"/><path d="M2.962,46.214,64,95.7V96h.365L144,160.569V232a8,8,0,0,0,16,0V173.542l16,12.973V344a8,8,0,0,0,16,0V199.488C303.376,288.973,298.636,288,304,288H408a8.007,8.007,0,0,0,5.038-14.214L352,224.3V224h-.365C102.885,23.159,117.39,32,112,32H8A8.007,8.007,0,0,0,2.962,46.214ZM385.431,272H306.836l-39.467-32h78.595Zm-59.2-48H248v.295L208.169,192h78.6Zm-59.2-48H188.436l-39.467-32h78.6ZM168,95.705,207.831,128H129.236L89.769,96H168ZM109.164,48l39.467,32H70.036L30.569,48Z"/><path d="M424,144a56,56,0,1,0-56-56A56.063,56.063,0,0,0,424,144Zm0-96a40,40,0,1,1-40,40A40.045,40.045,0,0,1,424,48Z"/><circle cx="424" cy="8" r="8"/><circle cx="424" cy="168" r="8"/><circle cx="504" cy="88" r="8"/><circle cx="344" cy="88" r="8"/><circle cx="367.432" cy="31.431" r="8"/><circle cx="152" cy="264" r="8"/><circle cx="480.568" cy="144.569" r="8"/><circle cx="480.568" cy="31.431" r="8"/><circle cx="367.432" cy="144.569" r="8"/><path d="M152,280a8,8,0,0,0-8,8v56a8,8,0,0,0,16,0V288A8,8,0,0,0,152,280Z"/></g></g></svg>
