<svg id="Flat" viewBox="0 0 64 64" xmlns="http://www.w3.org/2000/svg"><path d="m49 7-3.453 9.208a40.01 40.01 0 0 0 -2.547 14.045v32.747h12v-32.747a40.01 40.01 0 0 0 -2.547-14.045z" fill="#eb8e46"/><path d="m55 30.253a40.01 40.01 0 0 0 -2.547-14.045l-3.453-9.208v56h6z" fill="#f0a05b"/><path d="m49 7h-34l-3.453 9.208a40.01 40.01 0 0 0 -2.547 14.045v32.747h34v-32.747a40.01 40.01 0 0 1 2.547-14.045z" fill="#f0a05b"/><path d="m46 1a3 3 0 0 1 3 3v3a0 0 0 0 1 0 0h-6a0 0 0 0 1 0 0v-3a3 3 0 0 1 3-3z" fill="#eb8e46"/><path d="m46 1h-30a4 4 0 0 0 -4 4v2a2 2 0 0 0 2 2h27a2 2 0 0 0 2-2v-3a3 3 0 0 1 3-3z" fill="#f7b26c"/><path d="m37.456 13h-16.912a2 2 0 0 0 -1.872 1.3l-1.843 4.91a2 2 0 0 0 1.873 2.7h16.912a2 2 0 0 0 1.873-1.3l1.842-4.91a2 2 0 0 0 -1.873-2.7z" fill="#fff"/><path d="m49 55-6 8h12z" fill="#f7b26c"/><circle cx="26" cy="39" fill="#f36464" r="13"/><path d="m27 34h-2l-.689-2.757a1 1 0 0 1 .97-1.243h1.438a1 1 0 0 1 .97 1.243z" fill="#fff"/><path d="m36 41h-20a3 3 0 0 0 3 3h14a3 3 0 0 0 3-3z" fill="#fff"/><path d="m26 33a8 8 0 0 0 -8 8h16a8 8 0 0 0 -8-8z" fill="#eff6ff"/><g fill="#525b69"><path d="m18 56.5h-5a.5.5 0 0 1 0-1h5a.5.5 0 0 1 0 1z"/><path d="m18 59.5h-5a.5.5 0 0 1 0-1h5a.5.5 0 0 1 0 1z"/></g></svg>