<?xml version="1.0" encoding="UTF-8"?>
<svg xmlns="http://www.w3.org/2000/svg" id="outline" viewBox="0 0 64 64" width="512" height="512"><path d="M3,46H61a1,1,0,0,0,0-2H57.64a9,9,0,1,0-11.28,0H35.46A6,6,0,0,0,37,40h2v1a1,1,0,0,0,1,1h.69a1,1,0,0,0,.31-2v-11l.44-2.63a.2.2,0,0,1,0-.07L42.85,18h9.23l.26,3.14a1,1,0,0,0,2-.16L54,17V12h3a1,1,0,0,0,0-2H53a1,1,0,0,0-1,1v5H38a1,1,0,0,0,0,2h2.82l-1.36,8.1v.08l-.33,2L26.62,30.5A4,4,0,0,0,23.39,35l.44,3.32A2,2,0,0,0,25,39.83c0,.05,0,.11,0,.17a6,6,0,0,0,1.54,4H13V38h1a5,5,0,0,0,5-5,1,1,0,0,0-1-1H16a5,5,0,0,0-4,2,5,5,0,0,0-4-2H6a1,1,0,0,0-1,1,5,5,0,0,0,5,5h1v6H3a1,1,0,0,0,0,2Zm42-9a7,7,0,1,1,7,7A7,7,0,0,1,45,37ZM25.37,34.69A2,2,0,0,1,27,32.46l12-2.25V38H36.65a6,6,0,0,0-10.95-.81ZM27,40a4,4,0,1,1,4,4A4,4,0,0,1,27,40ZM16,34h.83A3,3,0,0,1,14,36h-.83A3,3,0,0,1,16,34Zm-6,2a3,3,0,0,1-2.83-2H8a3,3,0,0,1,2.83,2Z"/><path d="M2.88,48a1,1,0,0,0,.24,2,63,63,0,0,1,13.75.31H17a1,1,0,0,0,.13-2A62.76,62.76,0,0,0,2.88,48Z"/><path d="M2.84,52a1,1,0,0,0,.32,2c.18,0,18.81-2.8,34.27,7.83A1,1,0,0,0,38,62a1,1,0,0,0,.82-.43,1,1,0,0,0-.25-1.39C22.42,49.08,3.64,51.89,2.84,52Z"/><path d="M30.42,60.09C17.3,54,3.44,55.93,2.86,56a1,1,0,1,0,.28,2c.14,0,13.87-1.88,26.44,3.92A1.06,1.06,0,0,0,30,62a1,1,0,0,0,.42-1.91Z"/><path d="M19.14,60c-7-1-15.88,0-16.25,0a1,1,0,1,0,.22,2c.09,0,9-1,15.75,0H19a1,1,0,0,0,.14-2Z"/><path d="M61,60H44.37c-.43-.4-.88-.78-1.33-1.15A72.34,72.34,0,0,1,60.93,58a1,1,0,0,0,.14-2A73.37,73.37,0,0,0,41,57.22c-.74-.55-1.51-1.07-2.29-1.56A85.37,85.37,0,0,1,60.93,54a1,1,0,0,0,.14-2,88,88,0,0,0-25,2.17,42.41,42.41,0,0,0-4.13-2c5.51-1.32,15-2.78,29-2.2A1,1,0,1,0,61,48c-16.85-.7-27.36,1.53-32.27,3a56,56,0,0,0-7.58-2,1,1,0,0,0-.38,2c9.19,1.77,16.76,5.4,22.51,10.79a.78.78,0,0,0,.15.1l.15.09A1,1,0,0,0,44,62H61a1,1,0,0,0,0-2Z"/><path d="M52,33a4,4,0,1,0,4,4A4,4,0,0,0,52,33Zm0,6a2,2,0,1,1,2-2A2,2,0,0,1,52,39Z"/><circle cx="31" cy="40" r="1"/><path d="M43.4,27.25a1,1,0,0,0-.09,1.41,1,1,0,0,0,1.41.09,11,11,0,0,1,15.53,1,1,1,0,0,0,1.41.09,1,1,0,0,0,.09-1.41A13,13,0,0,0,43.4,27.25Z"/></svg>
