<svg id="Capa_1" enable-background="new 0 0 512.03 512.03" height="512" viewBox="0 0 512.03 512.03" width="512" xmlns="http://www.w3.org/2000/svg"><g><g><path d="m115.034 348.515c-13.785 0-25.001 11.215-25.001 25s11.215 25 25.001 25c13.785 0 25-11.215 25-25s-11.215-25-25-25z"/><path d="m115.033 258.514c-63.412 0-115.001 51.589-115.001 115s51.589 115 115.001 115 115-51.589 115-115c.001-63.411-51.588-115-115-115zm.001 170.001c-30.327 0-55-24.673-55-55s24.673-55 55-55 55 24.673 55 55-24.673 55-55 55z"/><path d="m419.036 348.512c-38.66 0-70 31.34-70 70s31.34 70 70 70 70-31.34 70-70-31.34-70-70-70zm0 85c-8.284 0-15-6.716-15-15 0-8.285 6.716-15 15-15s15 6.715 15 15c0 8.284-6.716 15-15 15z"/></g><path d="m497.03 220.516h-46.993v-55.885c0-2.757 2.243-5 5-5h13c8.284 0 15-6.716 15-15s-6.716-15-15-15h-13c-19.299 0-35 15.701-35 35v55.885h-78.998l-42.386-167.001h10.717c8.284 0 15-6.716 15-15s-6.716-15-15-15h-227.669c-8.284 0-15 6.716-15 15s6.716 15 15 15h3.189l-17.328 151.61c-22.451 6.353-43.602 17.164-61.956 31.906-6.458 5.188-7.489 14.629-2.301 21.088 5.188 6.458 14.628 7.488 21.088 2.301 25.986-20.873 57.328-31.906 90.639-31.906 79.954 0 145.001 65.047 145.001 145 0 7.397-.564 14.827-1.677 22.081-1.256 8.189 4.364 15.845 12.553 17.101.771.118 1.536.175 2.293.175 7.28 0 13.67-5.31 14.808-12.728.59-3.843 1.044-7.727 1.376-11.629h34.248c12.772-40.53 50.708-70.003 95.401-70.003 41.157 0 76.581 24.994 91.904 60.599.697-1.73 1.09-3.616 1.09-5.596v-137.998c.001-8.284-6.715-15-14.999-15zm-381.997-22.002c-5.56 0-11.103.279-16.613.81l16.664-145.809h98.951v167.001h-14.138c-25.151-14.007-54.089-22.002-84.864-22.002zm129.003 22.002v-167.001h23.665l42.386 167.001z"/></g></svg>