<svg id="Layer_1" data-name="Layer 1" xmlns="http://www.w3.org/2000/svg" viewBox="0 0 388.71 526.93"><defs><style>.cls-1{fill:#689e24;}.cls-2{fill:#598c16;}.cls-3{fill:#77b42a;}.cls-4{fill:#d7eea5;}</style></defs><path class="cls-1" d="M514.12,360.35c-11.7,9.91-31.14,24.59-48.18,21a24.94,24.94,0,0,1-8.37-3.48,29.13,29.13,0,0,1-4.51-3.61c-17.77-17.25-20-43.14-24.34-68.86-3-17.53-10-37.51-10.53-57.15-.2-8.28,1.5-23.15,4.85-36.24,3-11.68,7.24-21.88,12.49-24.59a15.91,15.91,0,0,0,5.2,0c4.73-.73,10.06-3.4,15.26-6.85,2.56-1.7,5.1-3.56,7.57-5.49,4.65-3.65,9.05-7.47,12.68-10.63,8.89-7.74,17.92-12.36,29.29-10.27,27.2,5,24.85,20.1,28.4,45.87.14,1,.3,1.95.51,2.91a70.37,70.37,0,0,0,2.7,10.09c6.43,18.59,20,34,20.66,56C558.88,302.6,540.94,337.63,514.12,360.35Z" transform="translate(-293.29 -153.66)"/><path class="cls-1" d="M474.05,266.74c-.29,5.4-.25,10.67-.13,15.75.35,14.94,1.4,28.7-2.93,41.63-5.25,15.67-7.64,32-11.56,47.06-.59,2.24-1.21,4.49-1.86,6.65-7,23.31-22.59,42.68-55.89,36.85-29.12-5.1-37.44-40.19-47.78-62.43-5.21-11.19-15-24.2-25.31-39.38-14.79-21.76-25.95-44-19.68-61.34,3.34-9.27,7.36-17.26,9.5-27.32,2.53-11.88,2.8-24.3,12.4-35.09,17.27-19.4,33.46-23.76,49.75-14.54,9.52,5.39,20.46,9.79,32.8,5.37,11.72-4.2,16.29-16.45,28.19-15a11.85,11.85,0,0,1,4.24,1.4c4.46,2.41,7.71,7.58,10.2,14.17,4,10.46,6.15,24.54,9,35.6a70.47,70.47,0,0,0,2.88,9.09c3.39,8.32,9.7,22,7.18,30.93C474.55,259.78,474.24,263.29,474.05,266.74Z" transform="translate(-293.29 -153.66)"/><path class="cls-1" d="M680.58,270.48c-.3,1.49-.63,2.94-.93,4.29-4.32,19.7-18.07,36.82-32,52.64-12.31,14-20.69,31.74-35.62,44.24-18.3,15.32-37.7,29.22-61.26,34.9-29.93,7.22-65.34-2.32-84.85-25.24a46.42,46.42,0,0,1-5.56-8.25c-.32-.62-.67-1.25-.95-1.88-12.3-27.95,4.73-62.14,11.16-89.6.09-.38.18-.82.27-1.21.89-4.25,2.08-8.92,3.19-13.63,6.09-25.77,19.68-65,53-65a36.59,36.59,0,0,1,7.42,1.22,43.09,43.09,0,0,0,10.13,1.49,13,13,0,0,0,4.59-.88c6.33-2.59,9.9-10.71,16.48-13.62,8.92-4,16.56-.59,24.12,4.52,8.3,5.6,16.68,13.28,26,15.88,18.85,5.26,34.55,4.2,53.66,20.25C683.86,242.73,683.06,258.43,680.58,270.48Z" transform="translate(-293.29 -153.66)"/><path class="cls-2" d="M680.58,270.48c-.29,1.5-.63,2.94-.93,4.29-4.32,19.7-18.07,36.82-32,52.64-12.31,14-20.69,31.74-35.62,44.24-18.3,15.32-37.7,29.22-61.26,34.9-29.93,7.22-64.54-2.24-84.85-25.24a25,25,0,0,1-8.37-3.48c-7.08,23.36-22.59,42.68-55.89,36.85-29.12-5.1-37.44-40.19-47.78-62.43-5.21-11.19-15-24.2-25.31-39.38a41.19,41.19,0,0,1,2.38-7.76c2.83-6.72,9.56-10.83,8.47-19.69-.8-6.5-9.7-12.55,2.46-24-13.12-30.18,45.89-31.15,63-37.33,6-2.18,12.61-7.14,18.12-12.1,7.68-6.9,14.1-15.42,17.69-24.57.32-.82.64-1.63.91-2.44,1.06-3.19,2.37-11.43,4.15-18.58,4.52,2.39,7.71,7.58,10.2,14.17,2.56-1.71,5.1-3.56,7.57-5.49,2,14.62,1.92,32.6,1.82,36.57a43.73,43.73,0,0,1-.38,4.52c-2.67,20.28,27.76,40.29,34,29.2,9.73-17.26,25.81-18.92,38.13-32.32,2.52-2.74,5-5.65,7.43-8.6a12.41,12.41,0,0,0,4.59-.88c6.33-2.59,9.9-10.71,16.48-13.62,8.92-4,16.55-.62,24.12,4.52C585,205.75,574.4,215,576.89,231.53c3.38,22.34,20.49,21,36.29,24.44,10,2.19,19.54,4.21,29.3,4,10-.22,19.41-3.06,29.83,3.59A56.56,56.56,0,0,1,680.58,270.48Z" transform="translate(-293.29 -153.66)"/><path class="cls-3" d="M413.39,646.76c-18.31,50.08-43.74-34.12-45-47.78-3.59-38.15,16.11-94,4-131.15-6.67-20.37-33.73-35.79-36.67-57.38-2.36-17.25,8.08-36.07-1.53-52.9-14.68-25.73-35.22-53.56-39.82-82.25-3.77-23.55,2.22-43.42,27.42-46.72,28.92-3.78,26.85,17.82,45.07,21.58,10.67,2.2,14-8.48,25.42-1.85,12.12,7,12.6,22.41,18.9,31.49,5,7.22,13.39,14.37,20.79,25.29,14,20.66,3.63,37,5.51,54.64,2,18.79,14.69,34.56,14.72,54.8,0,25.88-9.42,33.92-22.07,54.5C399,519.48,429.05,590.69,413.39,646.76Z" transform="translate(-293.29 -153.66)"/><path class="cls-1" d="M398.16,504.09c-7.78-27.39-18.72-54.27-33.67-78.38-3.47-9.78-6.59-19.59-6.11-29.46,2.52,8.09,12,32.28,22.7,30.81,1.48-9.47-5.68-19.86-7.49-29.07-4.31-22-1.65-43.93-2.11-66.1,5.7,27.68,12.52,54.36,23.39,80.53,4.65,11.17,9.64,25.15,12.09,37,2.74,13.25-1.49,31.43-5,44C402.47,496.64,400.06,500.4,398.16,504.09Z" transform="translate(-293.29 -153.66)"/><path class="cls-3" d="M647.17,387.1c-11.55,11.19-8.53,20.41-12.28,32.2-9.13,28.63-43.81,39.24-69.33,52.72C517.7,497.3,530.64,574.11,505,613.15c-5.29,8.05-31.78,42.29-45.29,36.93-12.39-4.93-2.83-40.13-3-50.16-.7-36.71,8-76.11,6.13-113.25-.84-17.07-.53-28.49,9.51-42,8.39-11.32,18.19-15.67,19.44-29.15,1.64-17.69-7.59-28.86,1-46.71,7.12-14.84,20.32-46.06,38.11-58.45,13.31-9.28,41.39-12.1,58.6-18,23.34-7.94,48.75-17,72.75,2.66,21.35,17.46,1.74,34-1.3,49.87C657.45,362.74,663.85,368.54,647.17,387.1Z" transform="translate(-293.29 -153.66)"/><path class="cls-1" d="M506.86,502.51c2.66-9.68,4.54-21.57,9.22-30.64,5.7-11.07,12.93-15.1,18.48-26.55,9.89-20.41,13-58.09,28.11-75.93-1.82,9.95-2.2,27.41-1.73,37.59,8.67-11,21.15-19.1,31-29.23,8.17-8.44,21.37-29.52,26.59-40,1.83,15.08-15.15,45.78-21,59.11-2.82,6.36-7.2,11.67-10.13,18-3.27,7-4.41,14.61-7.41,21.46-7.7,17.54-27.26,19.58-39.13,32.64-8.34,9.18-18.3,20.34-24.26,31.23-6.27,11.47-7.54,24.54-9.65,37.07-1.59,9.44-4.65,18.83-5.86,28.3C501.11,553,505.2,508.55,506.86,502.51Z" transform="translate(-293.29 -153.66)"/><path class="cls-3" d="M531,430.66c-10.27,14.49-12.8,31.41-22.4,46-7.82,11.85-19.92,18.84-29.17,30.49-20.94,26.37-28.34,60.44-35.22,92.47-71.14-42-6.94-118-28.13-171.55-10.19-25.78-29.87-53.27-28.92-83.19.95-30.14,7.14-59.62,20.59-84.95,15.71-29.57,47.56-18.45,55.63-21.59,7.77-3,12.24-15.28,19.79-19.48,30.82-17.15,50.08,25,62.37,43.09,19.64,28.93,6,64.68,3.19,94.35C546.69,378,547.14,410.83,531,430.66Z" transform="translate(-293.29 -153.66)"/><path class="cls-1" d="M540.78,357.6C543,331.85,566,300,552.26,272.73c-4.07,26-18.43,54.8-33.91,76.06-9.19,12.61-19.14,25.35-23.6,39.48-3.78,12-8.24,21.75-10.12,34-2.07,13.53-3.93,27.9-21.26,32-11.22,2.63-8-21.18-7.79-25.89.8-21.28,4.54-37.64-11.07-88.19,0,0-8.72,84.45-10.2,80.4-3.43-9.35-11.51-14-13.58-23.58s-6.6-17.24-11.43-26.08c-8.93-16.34-12.85-31.95-13.74-51.9-.76-16.88,1.13-34.11,7.73-51.22-11.59,22.77-15.23,52.48-16.12,77.06-1.1,30.06,18.73,57.41,28.92,83.19,21.2,53.57-19.36,142.48,51.79,184.45,6.87-32,7.76-83.27,12.68-98.75,4.51-14.17,19.73-57.79,29.14-68.41C535.94,415.73,538.88,379.49,540.78,357.6Z" transform="translate(-293.29 -153.66)"/><path class="cls-4" d="M577.31,449.06C556.38,464.44,529.68,470,521,493.26c-10.19,27.41-5.15,62.47-6,90.38-1.18,38.4-27.62,121.24-86.93,90.08,5.19-18.25,8.13-61.53,27.47-63.25,33.15-3,34.92-51.76,41.33-74.56,10.07-35.82,15.43-49.79,38.58-80.79,14.58-19.54,11.27-33.6,18.88-61.56,7.36-27.07,15.21-36.79,21.6-52.64-.52,10.81-5.29,18.55-11.16,40.95a158.2,158.2,0,0,0-3.73,23c7.46-9.17,14.14-15.39,26.78-29.63,19.09-21.5,37-57.46,37-57.46-6.34,30.68-29.56,60.44-46.59,81.12-15.59,18.94-20.6,49.53-20.6,49.53,25.06-7.24,44.26-33,57.65-53C614.92,406.12,606.07,427.92,577.31,449.06Z" transform="translate(-293.29 -153.66)"/><path class="cls-4" d="M401.27,623.23c-16.48-13.54-15.11-24.86-13.71-39.77,3-32.62,15.65-66.83,21.68-98.73s-8.59-66.1-21.31-96.07c-10.15-23.9-17.07-62.89-15.21-87.15-8,36.2,0,70,11,99.81,7.62,20.68,18.95,50.28,13.47,87.62-8.73-41.76-46.37-79.26-38.35-121.69-15.27,32.59,11.81,74.92,24.47,104.67,9.62,22.59,7.36,55.05-.4,77.28-13.72,39.28-35.53,146.16,52.32,126.13C418.59,655,401.27,623.23,401.27,623.23Z" transform="translate(-293.29 -153.66)"/><path class="cls-4" d="M472.55,582.82c1.74,26.15-25.7,96-49.4,94-23.46-2-26.84-56-23.71-82,6.83-56.62,25.45-113.7,34.14-169.22,5.36-34.26-1.44-68.89,13.71-102.67-7.06,28.82-.88,60-2.55,88.26-.59,10-5.6,50.84-8.9,75.86-2.29,17.39-8.06,31-.93,39.77,5.5,6.75,12.32-24.47,14.64-34.91,6-26.84,12.7-53.59,21.82-79.88,11.86-34.22,22.37-68.59,32.08-103.72C499,336.8,494.26,365,485.79,392.68c-5.58,18.23-13,35.9-18.07,54.25-.35,1.27-10.56,43.6-4.94,39.74S472,479.11,479,464.05c4.88-10.39,17.79-33.5,22.9-43.82,9.91-20,13.53-35.09,19.84-60.89,0,28.66-9.5,59.9-24.26,87.12C474,489.83,468.7,524.9,472.55,582.82Z" transform="translate(-293.29 -153.66)"/></svg>