<?xml version="1.0" encoding="iso-8859-1"?>
<!-- Generator: Adobe Illustrator 19.0.0, SVG Export Plug-In . SVG Version: 6.00 Build 0)  -->
<svg version="1.1" id="Capa_1" xmlns="http://www.w3.org/2000/svg" xmlns:xlink="http://www.w3.org/1999/xlink" x="0px" y="0px"
	 viewBox="0 0 512 512" style="enable-background:new 0 0 512 512;" xml:space="preserve">
<g>
	<g>
		<path d="M448,299.962h-39.385v-29.537h-54.152c-8.157,0-14.769-6.613-14.769-14.769c0-8.157,6.613-14.769,14.769-14.769h54.152
			v-4.924c0-31.729-9.737-61.224-26.373-85.664l-32.252,32.252c-2.884,2.884-6.664,4.326-10.443,4.326s-7.56-1.442-10.443-4.326
			c-5.768-5.767-5.768-15.119,0-20.887l34.157-34.157c-24.296-24.031-56.595-39.98-92.494-43.443l0.001,53.437
			c0,8.157-6.613,14.769-14.769,14.769c-2.549,0-4.948-0.646-7.04-1.783c-4.605-2.501-7.731-7.379-7.731-12.987V84.064
			c-35.897,3.464-68.194,19.413-92.49,43.443l14.319,14.319l19.837,19.837c5.768,5.767,5.768,15.119,0,20.887
			c-2.884,2.884-6.664,4.326-10.443,4.326c-3.779,0-7.56-1.442-10.443-4.326l-19.837-19.837l-12.415-12.414
			c-16.636,24.439-26.373,53.934-26.373,85.664v4.924h54.157c8.157,0,14.769,6.613,14.769,14.769
			c0,8.157-6.613,14.769-14.769,14.769h-54.157v29.537h-0.003v54.152c0,8.157-6.613,14.769-14.769,14.769
			s-14.769-6.613-14.769-14.769v-54.152H64c-35.29,0-64,28.71-64,64s28.71,64,64,64h73.846c51.577,0,93.539-41.961,93.539-93.538
			v-98.462c0-13.573,11.042-24.615,24.615-24.615s24.615,11.042,24.615,24.615v98.462c0,51.577,41.961,93.538,93.539,93.538H448
			c35.29,0,64-28.71,64-64S483.29,299.962,448,299.962z M457.767,375.265c-0.039,0.473-0.118,0.956-0.217,1.428
			c-0.09,0.473-0.207,0.945-0.346,1.408c-0.147,0.453-0.305,0.917-0.492,1.36c-0.186,0.442-0.393,0.876-0.62,1.299
			c-0.225,0.433-0.472,0.847-0.738,1.251c-0.266,0.393-0.551,0.788-0.857,1.162c-0.305,0.374-0.639,0.738-0.975,1.083
			c-0.345,0.336-0.709,0.671-1.083,0.975c-0.374,0.306-0.768,0.592-1.162,0.857c-0.404,0.267-0.817,0.513-1.251,0.738
			c-0.423,0.226-0.857,0.433-1.299,0.62c-0.443,0.187-0.907,0.346-1.36,0.492c-0.463,0.139-0.934,0.256-1.408,0.354
			c-0.472,0.089-0.955,0.167-1.438,0.217c-0.482,0.049-0.964,0.069-1.447,0.069c-0.483,0-0.975-0.021-1.457-0.069
			c-0.472-0.049-0.955-0.128-1.428-0.217c-0.472-0.099-0.945-0.217-1.408-0.354c-0.453-0.147-0.916-0.305-1.359-0.492
			c-0.443-0.186-0.876-0.393-1.3-0.62c-0.432-0.225-0.846-0.472-1.25-0.738c-0.394-0.266-0.788-0.551-1.162-0.857
			c-0.375-0.305-0.738-0.639-1.084-0.975c-0.335-0.345-0.67-0.709-0.975-1.083c-0.305-0.374-0.591-0.768-0.856-1.162
			c-0.267-0.404-0.513-0.817-0.738-1.251c-0.226-0.423-0.433-0.857-0.621-1.299c-0.186-0.443-0.345-0.907-0.492-1.36
			c-0.138-0.463-0.256-0.934-0.354-1.408c-0.089-0.472-0.167-0.955-0.218-1.428c-0.049-0.482-0.068-0.974-0.068-1.456
			c0-0.482,0.02-0.965,0.068-1.447c0.05-0.482,0.129-0.965,0.218-1.439c0.098-0.472,0.217-0.945,0.354-1.398
			c0.148-0.463,0.306-0.924,0.492-1.369c0.187-0.443,0.394-0.876,0.621-1.3c0.225-0.432,0.472-0.846,0.738-1.25
			c0.266-0.394,0.551-0.788,0.856-1.162c0.306-0.375,0.64-0.738,0.975-1.084c0.346-0.335,0.709-0.67,1.084-0.975
			c0.374-0.305,0.758-0.591,1.162-0.856c0.404-0.267,0.817-0.513,1.241-0.738c0.423-0.226,0.867-0.433,1.31-0.621
			c0.443-0.186,0.906-0.345,1.359-0.492c0.463-0.138,0.935-0.256,1.408-0.354c0.473-0.089,0.956-0.167,1.428-0.218
			c0.965-0.098,1.95-0.098,2.905,0c0.482,0.05,0.965,0.129,1.438,0.218c0.473,0.098,0.945,0.217,1.408,0.354
			c0.453,0.148,0.917,0.306,1.36,0.492c0.442,0.187,0.876,0.394,1.299,0.621c0.433,0.225,0.847,0.472,1.251,0.738
			c0.393,0.266,0.788,0.551,1.162,0.856c0.374,0.306,0.738,0.64,1.083,0.975c0.336,0.346,0.671,0.709,0.975,1.084
			c0.306,0.374,0.592,0.767,0.857,1.162c0.267,0.404,0.513,0.817,0.738,1.25c0.227,0.424,0.433,0.857,0.62,1.3
			c0.187,0.443,0.346,0.906,0.492,1.369c0.139,0.453,0.256,0.926,0.346,1.398c0.098,0.473,0.177,0.956,0.217,1.439
			c0.049,0.481,0.079,0.964,0.079,1.447C457.846,374.292,457.817,374.783,457.767,375.265z"/>
	</g>
</g>
<g>
</g>
<g>
</g>
<g>
</g>
<g>
</g>
<g>
</g>
<g>
</g>
<g>
</g>
<g>
</g>
<g>
</g>
<g>
</g>
<g>
</g>
<g>
</g>
<g>
</g>
<g>
</g>
<g>
</g>
</svg>
